<svg width="50" height="50" viewBox="0 0 50 50" fill="none" xmlns="http://www.w3.org/2000/svg">
<g clip-path="url(#clip0_43_1431)">
<path d="M26.6429 7.14285C26.4642 6.87022 26.2204 6.64634 25.9336 6.4914C25.6468 6.33647 25.326 6.25534 25 6.25534C24.674 6.25534 24.3532 6.33647 24.0664 6.4914C23.7796 6.64634 23.5358 6.87022 23.3571 7.14285L1.92857 41.0714C1.77184 41.3429 1.68933 41.6508 1.68933 41.9643C1.68933 42.2777 1.77184 42.5857 1.92857 42.8571C2.10422 43.1331 2.34717 43.3598 2.63456 43.516C2.92195 43.6722 3.24435 43.7527 3.57143 43.75H46.4286C46.7556 43.7527 47.078 43.6722 47.3654 43.516C47.6528 43.3598 47.8958 43.1331 48.0714 42.8571C48.2282 42.5857 48.3107 42.2777 48.3107 41.9643C48.3107 41.6508 48.2282 41.3429 48.0714 41.0714L26.6429 7.14285Z" stroke="white" stroke-width="3.57143" stroke-linecap="round" stroke-linejoin="round"/>
</g>
<defs>
<clipPath id="clip0_43_1431">
<rect width="50" height="50" fill="white"/>
</clipPath>
</defs>
</svg>
