<svg width="50" height="50" viewBox="0 0 50 50" fill="none" xmlns="http://www.w3.org/2000/svg">
<g clip-path="url(#clip0_43_1796)">
<path d="M36.3571 26.7857C36.3605 24.8979 36.9644 23.0602 38.0816 21.5385C39.1988 20.0167 40.7713 18.89 42.5714 18.3214C41.8741 17.0368 40.9135 15.9137 39.7526 15.0255C38.5916 14.1373 37.2564 13.504 35.834 13.1669C34.4117 12.8299 32.9342 12.7967 31.4981 13.0694C30.0621 13.3422 28.6997 13.9149 27.5 14.75C26.9571 15.0635 26.3412 15.2285 25.7143 15.2285C25.0874 15.2285 24.4715 15.0635 23.9286 14.75C22.63 13.9264 21.1737 13.3832 19.6529 13.1554C18.1322 12.9275 16.5806 13.02 15.0977 13.4269C13.6148 13.8337 12.2333 14.546 11.0417 15.5181C9.8502 16.4901 8.87497 17.7004 8.17857 19.0714C6.18904 22.7355 5.50873 26.9685 6.25 31.0714C6.85187 36.7065 9.28586 41.9885 13.1786 46.1071C14.4618 47.3245 16.1356 48.0465 17.9017 48.1447C19.6677 48.2428 21.4113 47.7105 22.8214 46.6429C23.6329 46.0426 24.6156 45.7186 25.625 45.7186C26.6344 45.7186 27.6171 46.0426 28.4286 46.6429C29.7818 47.7361 31.4786 48.3144 33.2178 48.2752C34.957 48.2359 36.626 47.5817 37.9286 46.4286C40.8688 43.4603 42.9646 39.7619 44 35.7143C41.8548 35.4177 39.8926 34.3455 38.4843 32.7003C37.076 31.0551 36.3193 28.951 36.3571 26.7857Z" stroke="white" stroke-width="3.57143" stroke-linecap="round" stroke-linejoin="round"/>
<path d="M29.2143 7.14286L34.5714 1.78571" stroke="white" stroke-width="3.57143" stroke-linecap="round" stroke-linejoin="round"/>
</g>
<defs>
<clipPath id="clip0_43_1796">
<rect width="50" height="50" fill="white"/>
</clipPath>
</defs>
</svg>
