<svg width="50" height="50" viewBox="0 0 50 50" fill="none" xmlns="http://www.w3.org/2000/svg">
<path d="M25 20.7857H48.2143V4.71428C48.2169 4.46183 48.1648 4.21181 48.0617 3.98138C47.9585 3.75095 47.8068 3.54556 47.6168 3.37931C47.4268 3.21306 47.203 3.08989 46.961 3.01825C46.7189 2.94661 46.4642 2.9282 46.2143 2.96428L25 5.5V20.7857Z" stroke="white" stroke-width="3.57143" stroke-linecap="round" stroke-linejoin="round"/>
<path d="M17.8571 20.7857V6.10714L3.35714 7.89285C2.92159 7.94549 2.52065 8.15662 2.23082 8.48598C1.94099 8.81533 1.78255 9.23986 1.78571 9.67857V20.7857H17.8571Z" stroke="white" stroke-width="3.57143" stroke-linecap="round" stroke-linejoin="round"/>
<path d="M17.8571 27.9286H1.78571V38.6429C1.78738 39.069 1.93839 39.481 2.21245 39.8073C2.48652 40.1335 2.8663 40.3534 3.28571 40.4286L17.8571 42.8571V27.9286Z" stroke="white" stroke-width="3.57143" stroke-linecap="round" stroke-linejoin="round"/>
<path d="M25 27.9286V43.6429L46.1429 47.0357C46.3971 47.0769 46.6573 47.0627 46.9056 46.9939C47.1538 46.925 47.3842 46.8033 47.581 46.6371C47.7778 46.4709 47.9363 46.264 48.0456 46.0307C48.1549 45.7975 48.2125 45.5433 48.2143 45.2857V27.9286H25Z" stroke="white" stroke-width="3.57143" stroke-linecap="round" stroke-linejoin="round"/>
</svg>
