<svg width="50" height="50" viewBox="0 0 50 50" fill="none" xmlns="http://www.w3.org/2000/svg">
<g clip-path="url(#clip0_43_1721)">
<path d="M46.1071 19.6429H3.89285C1.89285 19.6429 1.0357 17.4643 2.60713 16.4286L23.7143 2.60714C24.104 2.3779 24.5479 2.25702 25 2.25702C25.4521 2.25702 25.896 2.3779 26.2857 2.60714L47.3928 16.4286C48.9643 17.4643 48.1071 19.6429 46.1071 19.6429Z" stroke="white" stroke-width="3.57143" stroke-linecap="round" stroke-linejoin="round"/>
<path d="M46.4286 39.2857H3.57142C2.5852 39.2857 1.78571 40.0852 1.78571 41.0714V46.4286C1.78571 47.4148 2.5852 48.2143 3.57142 48.2143H46.4286C47.4148 48.2143 48.2143 47.4148 48.2143 46.4286V41.0714C48.2143 40.0852 47.4148 39.2857 46.4286 39.2857Z" stroke="white" stroke-width="3.57143" stroke-linecap="round" stroke-linejoin="round"/>
<path d="M7.14282 19.6429V39.2857" stroke="white" stroke-width="3.57143" stroke-linecap="round" stroke-linejoin="round"/>
<path d="M16.0714 19.6429V39.2857" stroke="white" stroke-width="3.57143" stroke-linecap="round" stroke-linejoin="round"/>
<path d="M25 19.6429V39.2857" stroke="white" stroke-width="3.57143" stroke-linecap="round" stroke-linejoin="round"/>
<path d="M33.9286 19.6429V39.2857" stroke="white" stroke-width="3.57143" stroke-linecap="round" stroke-linejoin="round"/>
<path d="M42.8571 19.6429V39.2857" stroke="white" stroke-width="3.57143" stroke-linecap="round" stroke-linejoin="round"/>
</g>
<defs>
<clipPath id="clip0_43_1721">
<rect width="50" height="50" fill="white"/>
</clipPath>
</defs>
</svg>
