<svg width="50" height="50" viewBox="0 0 50 50" fill="none" xmlns="http://www.w3.org/2000/svg">
<g clip-path="url(#clip0_43_1746)">
<path d="M48.2143 1.78571H39.2857L36.1786 32.6786C36.0494 33.5302 35.6168 34.3064 34.9605 34.8643C34.3042 35.4222 33.4684 35.724 32.6071 35.7143H10.1071C9.32833 35.7549 8.55763 35.5396 7.91273 35.101C7.26784 34.6625 6.78421 34.0249 6.53571 33.2857L1.78571 19C1.60861 18.4629 1.56159 17.8914 1.64852 17.3326C1.73544 16.7738 1.95383 16.2436 2.28571 15.7857C2.63146 15.2989 3.09376 14.9065 3.63033 14.6444C4.16689 14.3824 4.7606 14.259 5.35714 14.2857H38.0357" stroke="white" stroke-width="3.57143" stroke-linecap="round" stroke-linejoin="round"/>
<path d="M10.7143 48.2143C11.7005 48.2143 12.5 47.4148 12.5 46.4286C12.5 45.4423 11.7005 44.6429 10.7143 44.6429C9.72807 44.6429 8.92857 45.4423 8.92857 46.4286C8.92857 47.4148 9.72807 48.2143 10.7143 48.2143Z" stroke="white" stroke-width="3.57143" stroke-linecap="round" stroke-linejoin="round"/>
<path d="M33.9286 48.2143C34.9148 48.2143 35.7143 47.4148 35.7143 46.4286C35.7143 45.4423 34.9148 44.6429 33.9286 44.6429C32.9423 44.6429 32.1429 45.4423 32.1429 46.4286C32.1429 47.4148 32.9423 48.2143 33.9286 48.2143Z" stroke="white" stroke-width="3.57143" stroke-linecap="round" stroke-linejoin="round"/>
</g>
<defs>
<clipPath id="clip0_43_1746">
<rect width="50" height="50" fill="white"/>
</clipPath>
</defs>
</svg>
