<svg width="50" height="50" viewBox="0 0 50 50" fill="none" xmlns="http://www.w3.org/2000/svg">
<path d="M35.7143 6.25H5.35713C3.38469 6.25 1.78571 7.84898 1.78571 9.82143V31.25C1.78571 33.2224 3.38469 34.8214 5.35713 34.8214H35.7143C37.6867 34.8214 39.2857 33.2224 39.2857 31.25V9.82143C39.2857 7.84898 37.6867 6.25 35.7143 6.25Z" stroke="white" stroke-width="3.57143" stroke-linecap="round" stroke-linejoin="round"/>
<path d="M20.5357 25.8929C23.4944 25.8929 25.8929 23.4944 25.8929 20.5357C25.8929 17.577 23.4944 15.1786 20.5357 15.1786C17.5771 15.1786 15.1786 17.577 15.1786 20.5357C15.1786 23.4944 17.5771 25.8929 20.5357 25.8929Z" stroke="white" stroke-width="3.57143" stroke-linecap="round" stroke-linejoin="round"/>
<path d="M12.5 43.75H44.6429C45.5901 43.75 46.4985 43.3737 47.1682 42.7039C47.838 42.0342 48.2143 41.1258 48.2143 40.1786V22.3214" stroke="white" stroke-width="3.57143" stroke-linecap="round" stroke-linejoin="round"/>
</svg>
