<svg width="50" height="50" viewBox="0 0 50 50" fill="none" xmlns="http://www.w3.org/2000/svg">
<g clip-path="url(#clip0_43_1660)">
<path d="M25 16.0714V10.7143" stroke="white" stroke-width="3.57143" stroke-linecap="round" stroke-linejoin="round"/>
<path d="M19.6429 30.3571C19.6429 33.0357 22.0357 33.9286 25 33.9286C27.9643 33.9286 30.3571 33.9286 30.3571 30.3571C30.3571 25 19.6429 25 19.6429 19.6429C19.6429 16.0714 22.0357 16.0714 25 16.0714C27.9643 16.0714 30.3571 17.4286 30.3571 19.6429" stroke="white" stroke-width="3.57143" stroke-linecap="round" stroke-linejoin="round"/>
<path d="M25 33.9286V39.2857" stroke="white" stroke-width="3.57143" stroke-linecap="round" stroke-linejoin="round"/>
<path d="M25 48.2143C37.8209 48.2143 48.2143 37.8209 48.2143 25C48.2143 12.1791 37.8209 1.78571 25 1.78571C12.1791 1.78571 1.78571 12.1791 1.78571 25C1.78571 37.8209 12.1791 48.2143 25 48.2143Z" stroke="white" stroke-width="3.57143" stroke-linecap="round" stroke-linejoin="round"/>
</g>
<defs>
<clipPath id="clip0_43_1660">
<rect width="50" height="50" fill="white"/>
</clipPath>
</defs>
</svg>
