<svg width="50" height="50" viewBox="0 0 50 50" fill="none" xmlns="http://www.w3.org/2000/svg">
<g clip-path="url(#clip0_43_1713)">
<path d="M25 48.2143C37.8209 48.2143 48.2143 37.8209 48.2143 25C48.2143 12.1791 37.8209 1.78571 25 1.78571C12.1791 1.78571 1.78571 12.1791 1.78571 25C1.78571 37.8209 12.1791 48.2143 25 48.2143Z" stroke="white" stroke-width="3.57143" stroke-linecap="round" stroke-linejoin="round"/>
<path d="M20.5 24.7857V16.7857C20.5 16.3121 20.6881 15.8579 21.023 15.523C21.3579 15.1881 21.8121 15 22.2857 15H27.6771C28.9747 15 30.2193 15.5155 31.1368 16.4331C32.0544 17.3507 32.5699 18.5952 32.5699 19.8929C32.57 20.5415 32.4411 21.1836 32.1908 21.7819C31.9404 22.3803 31.5736 22.9228 31.1117 23.3781C30.6497 23.8334 30.1019 24.1923 29.5 24.434C28.8981 24.6756 28.2542 24.7952 27.6056 24.7857H20.5ZM20.5 24.7857V35M20.5 24.7857H18M18 31H27.6056" stroke="white" stroke-width="3.57143" stroke-linecap="round" stroke-linejoin="round"/>
</g>
<defs>
<clipPath id="clip0_43_1713">
<rect width="50" height="50" fill="white"/>
</clipPath>
</defs>
</svg>
