<svg width="50" height="50" viewBox="0 0 50 50" fill="none" xmlns="http://www.w3.org/2000/svg">
<g clip-path="url(#clip0_43_1742)">
<path d="M47.3214 33.4286L33.4286 47.3214C32.9263 47.823 32.2455 48.1048 31.5357 48.1048C30.8259 48.1048 30.1451 47.823 29.6429 47.3214L6.39287 24.0714C6.25433 23.939 6.14715 23.7773 6.07918 23.598C6.01121 23.4188 5.98416 23.2267 6.00001 23.0357L8.10715 9.32143C8.13172 9.00756 8.26754 8.71277 8.49016 8.49015C8.71278 8.26753 9.00757 8.13171 9.32144 8.10714L23.0357 6C23.2267 5.98415 23.4189 6.0112 23.5981 6.07917C23.7773 6.14714 23.939 6.25432 24.0714 6.39286L47.3214 29.6429C47.823 30.1451 48.1048 30.8259 48.1048 31.5357C48.1048 32.2455 47.823 32.9263 47.3214 33.4286Z" stroke="white" stroke-width="3.57143" stroke-linecap="round" stroke-linejoin="round"/>
<path d="M14.3929 14.3929L1.89288 1.89286" stroke="white" stroke-width="3.57143" stroke-linecap="round" stroke-linejoin="round"/>
</g>
<defs>
<clipPath id="clip0_43_1742">
<rect width="50" height="50" fill="white"/>
</clipPath>
</defs>
</svg>
