<svg width="50" height="50" viewBox="0 0 50 50" fill="none" xmlns="http://www.w3.org/2000/svg">
<g clip-path="url(#clip0_43_1843)">
<path d="M25 48.2143C37.8211 48.2143 48.2143 37.8211 48.2143 25C48.2143 12.1791 37.8211 1.78571 25 1.78571C12.1791 1.78571 1.78571 12.1791 1.78571 25C1.78571 37.8211 12.1791 48.2143 25 48.2143Z" stroke="white" stroke-width="3.57143" stroke-linecap="round" stroke-linejoin="round"/>
<path d="M13.2143 37.5C15 31.0714 21.7857 27.1428 28.5714 28.9286C32.5 30 35.7143 33.2143 37.1429 37.5" stroke="white" stroke-width="3.57143" stroke-linecap="round" stroke-linejoin="round"/>
<path d="M17.3214 19.4643C16.8283 19.4643 16.4286 19.0645 16.4286 18.5714C16.4286 18.0783 16.8283 17.6786 17.3214 17.6786" stroke="white" stroke-width="3.57143" stroke-linecap="round" stroke-linejoin="round"/>
<path d="M17.3214 19.4643C17.8145 19.4643 18.2143 19.0645 18.2143 18.5714C18.2143 18.0783 17.8145 17.6786 17.3214 17.6786" stroke="white" stroke-width="3.57143" stroke-linecap="round" stroke-linejoin="round"/>
<path d="M33.0357 19.4643C32.5426 19.4643 32.1428 19.0645 32.1428 18.5714C32.1428 18.0783 32.5426 17.6786 33.0357 17.6786" stroke="white" stroke-width="3.57143" stroke-linecap="round" stroke-linejoin="round"/>
<path d="M33.0357 19.4643C33.5288 19.4643 33.9285 19.0645 33.9285 18.5714C33.9285 18.0783 33.5288 17.6786 33.0357 17.6786" stroke="white" stroke-width="3.57143" stroke-linecap="round" stroke-linejoin="round"/>
</g>
<defs>
<clipPath id="clip0_43_1843">
<rect width="50" height="50" fill="white"/>
</clipPath>
</defs>
</svg>
