<svg width="50" height="50" viewBox="0 0 50 50" fill="none" xmlns="http://www.w3.org/2000/svg">
<g clip-path="url(#clip0_43_1829)">
<path d="M12.5001 26.7857C13.4863 26.7857 14.2858 25.9862 14.2858 25C14.2858 24.0138 13.4863 23.2143 12.5001 23.2143C11.5138 23.2143 10.7144 24.0138 10.7144 25C10.7144 25.9862 11.5138 26.7857 12.5001 26.7857Z" stroke="white" stroke-width="3.57143" stroke-linecap="round" stroke-linejoin="round"/>
<path d="M24.1072 26.7857C25.0935 26.7857 25.893 25.9862 25.893 25C25.893 24.0138 25.0935 23.2143 24.1072 23.2143C23.121 23.2143 22.3215 24.0138 22.3215 25C22.3215 25.9862 23.121 26.7857 24.1072 26.7857Z" stroke="white" stroke-width="3.57143" stroke-linecap="round" stroke-linejoin="round"/>
<path d="M35.7143 26.7857C36.7005 26.7857 37.5 25.9862 37.5 25C37.5 24.0138 36.7005 23.2143 35.7143 23.2143C34.7281 23.2143 33.9286 24.0138 33.9286 25C33.9286 25.9862 34.7281 26.7857 35.7143 26.7857Z" stroke="white" stroke-width="3.57143" stroke-linecap="round" stroke-linejoin="round"/>
<path d="M25.0001 1.78571C20.8009 1.78702 16.6808 2.92728 13.0784 5.08504C9.47608 7.24281 6.52647 10.3373 4.54375 14.0388C2.56103 17.7404 1.61945 21.9105 1.8193 26.1048C2.01915 30.2992 3.35295 34.3609 5.67862 37.8571L1.78577 48.2143L14.8215 45.8571C17.9604 47.3911 21.4051 48.1967 24.8988 48.214C28.3924 48.2313 31.845 47.4598 34.999 45.9571C38.1529 44.4543 40.9271 42.2591 43.1146 39.5349C45.302 36.8108 46.8464 33.6281 47.6326 30.224C48.4188 26.8199 48.4265 23.2822 47.6552 19.8747C46.8839 16.4672 45.3534 13.2778 43.1778 10.5442C41.0022 7.81051 38.2377 5.60317 35.0903 4.08667C31.9429 2.57018 28.4938 1.78365 25.0001 1.78571Z" stroke="white" stroke-width="3.57143" stroke-linecap="round" stroke-linejoin="round"/>
</g>
<defs>
<clipPath id="clip0_43_1829">
<rect width="50" height="50" fill="white"/>
</clipPath>
</defs>
</svg>
