<svg width="50" height="50" viewBox="0 0 50 50" fill="none" xmlns="http://www.w3.org/2000/svg">
<g clip-path="url(#clip0_43_1310)">
<path d="M48.2143 24.7857C48.2176 24.29 48.1178 23.799 47.921 23.344C47.7242 22.889 47.4349 22.4799 47.0714 22.1428L25 1.78571L2.92857 22.1428C2.56509 22.4799 2.27576 22.889 2.079 23.344C1.88224 23.799 1.78236 24.29 1.78571 24.7857V44.6428C1.78571 45.59 2.16199 46.4985 2.83176 47.1682C3.50153 47.838 4.40994 48.2143 5.35714 48.2143H44.6429C45.5901 48.2143 46.4985 47.838 47.1682 47.1682C47.838 46.4985 48.2143 45.59 48.2143 44.6428V24.7857Z" stroke="white" stroke-width="3.57143" stroke-linecap="round" stroke-linejoin="round"/>
</g>
<defs>
<clipPath id="clip0_43_1310">
<rect width="50" height="50" fill="white"/>
</clipPath>
</defs>
</svg>
