<svg width="50" height="50" viewBox="0 0 50 50" fill="none" xmlns="http://www.w3.org/2000/svg">
<g clip-path="url(#clip0_43_1312)">
<path d="M16.0714 1.78571H5.35714C3.3847 1.78571 1.78572 3.38469 1.78572 5.35713V16.0714C1.78572 18.0439 3.3847 19.6428 5.35714 19.6428H16.0714C18.0439 19.6428 19.6429 18.0439 19.6429 16.0714V5.35713C19.6429 3.38469 18.0439 1.78571 16.0714 1.78571Z" stroke="white" stroke-width="3.57143" stroke-linecap="round" stroke-linejoin="round"/>
<path d="M44.6429 1.78571H33.9286C31.9561 1.78571 30.3571 3.38469 30.3571 5.35713V16.0714C30.3571 18.0439 31.9561 19.6428 33.9286 19.6428H44.6429C46.6153 19.6428 48.2143 18.0439 48.2143 16.0714V5.35713C48.2143 3.38469 46.6153 1.78571 44.6429 1.78571Z" stroke="white" stroke-width="3.57143" stroke-linecap="round" stroke-linejoin="round"/>
<path d="M16.0714 30.3571H5.35714C3.3847 30.3571 1.78572 31.9561 1.78572 33.9286V44.6429C1.78572 46.6153 3.3847 48.2143 5.35714 48.2143H16.0714C18.0439 48.2143 19.6429 46.6153 19.6429 44.6429V33.9286C19.6429 31.9561 18.0439 30.3571 16.0714 30.3571Z" stroke="white" stroke-width="3.57143" stroke-linecap="round" stroke-linejoin="round"/>
<path d="M44.6429 30.3571H33.9286C31.9561 30.3571 30.3571 31.9561 30.3571 33.9286V44.6429C30.3571 46.6153 31.9561 48.2143 33.9286 48.2143H44.6429C46.6153 48.2143 48.2143 46.6153 48.2143 44.6429V33.9286C48.2143 31.9561 46.6153 30.3571 44.6429 30.3571Z" stroke="white" stroke-width="3.57143" stroke-linecap="round" stroke-linejoin="round"/>
</g>
<defs>
<clipPath id="clip0_43_1312">
<rect width="50" height="50" fill="white"/>
</clipPath>
</defs>
</svg>
