<svg width="50" height="50" viewBox="0 0 50 50" fill="none" xmlns="http://www.w3.org/2000/svg">
<path d="M48.2143 19.6429C48.2143 19.1692 48.0262 18.715 47.6913 18.3802C47.3564 18.0453 46.9022 17.8571 46.4286 17.8571H42.8571V14.2857C42.8571 13.3385 42.4809 12.4301 41.8111 11.7603C41.1413 11.0906 40.2329 10.7143 39.2857 10.7143H5.35714C4.40994 10.7143 3.50154 11.0906 2.83176 11.7603C2.16199 12.4301 1.78572 13.3385 1.78572 14.2857V35.7143C1.78572 36.6615 2.16199 37.5699 2.83176 38.2397C3.50154 38.9094 4.40994 39.2857 5.35714 39.2857H39.2857C40.2329 39.2857 41.1413 38.9094 41.8111 38.2397C42.4809 37.5699 42.8571 36.6615 42.8571 35.7143V32.1429H46.4286C46.9022 32.1429 47.3564 31.9547 47.6913 31.6198C48.0262 31.2849 48.2143 30.8307 48.2143 30.3571V19.6429Z" stroke="white" stroke-width="3.57143" stroke-linecap="round" stroke-linejoin="round"/>
<path d="M11.6071 19.6429V30.3571" stroke="white" stroke-width="3.57143" stroke-linecap="round" stroke-linejoin="round"/>
<path d="M22.3214 19.6429V30.3571" stroke="white" stroke-width="3.57143" stroke-linecap="round" stroke-linejoin="round"/>
</svg>
