<svg width="50" height="50" viewBox="0 0 50 50" fill="none" xmlns="http://www.w3.org/2000/svg">
<g clip-path="url(#clip0_43_1541)">
<path d="M48.2143 37.5V44.6429C48.2143 45.5901 47.838 46.4985 47.1682 47.1682C46.4985 47.838 45.5901 48.2143 44.6429 48.2143H37.5" stroke="white" stroke-width="3.57143" stroke-linecap="round" stroke-linejoin="round"/>
<path d="M37.5 1.78571H44.6429C45.5901 1.78571 46.4985 2.16198 47.1682 2.83175C47.838 3.50153 48.2143 4.40993 48.2143 5.35713V12.5" stroke="white" stroke-width="3.57143" stroke-linecap="round" stroke-linejoin="round"/>
<path d="M1.78571 12.5V5.35713C1.78571 4.40993 2.16198 3.50153 2.83175 2.83175C3.50153 2.16198 4.40993 1.78571 5.35713 1.78571H12.5" stroke="white" stroke-width="3.57143" stroke-linecap="round" stroke-linejoin="round"/>
<path d="M12.5 48.2143H5.35713C4.40993 48.2143 3.50153 47.838 2.83175 47.1682C2.16198 46.4985 1.78571 45.5901 1.78571 44.6429V37.5" stroke="white" stroke-width="3.57143" stroke-linecap="round" stroke-linejoin="round"/>
<path d="M14.2857 12.5V19.6429" stroke="white" stroke-width="3.57143" stroke-linecap="round" stroke-linejoin="round"/>
<path d="M35.7143 12.5V19.6429" stroke="white" stroke-width="3.57143" stroke-linecap="round" stroke-linejoin="round"/>
<path d="M25 16.0714V28.5714H19.6429" stroke="white" stroke-width="3.57143" stroke-linecap="round" stroke-linejoin="round"/>
<path d="M16.0714 35.7143C18.4808 38.0029 21.6769 39.2789 25 39.2789C28.323 39.2789 31.5192 38.0029 33.9286 35.7143" stroke="white" stroke-width="3.57143" stroke-linecap="round" stroke-linejoin="round"/>
</g>
<defs>
<clipPath id="clip0_43_1541">
<rect width="50" height="50" fill="white"/>
</clipPath>
</defs>
</svg>
