<svg width="50" height="50" viewBox="0 0 50 50" fill="none" xmlns="http://www.w3.org/2000/svg">
<path d="M25 47.8215C27.345 47.8215 29.6671 47.3596 31.8336 46.4622C34.0002 45.5648 35.9687 44.2494 37.6269 42.5912C39.2851 40.933 40.6004 38.9645 41.4979 36.7979C42.3953 34.6314 42.8571 32.3093 42.8571 29.9643V20.0357C42.8574 15.6489 41.2428 11.4155 38.3214 8.14288" stroke="white" stroke-width="3.57143" stroke-linecap="round" stroke-linejoin="round"/>
<path d="M7.14285 24V29.9643C7.14166 33.4796 8.17804 36.9171 10.1221 39.8459C12.0662 42.7747 14.8315 45.0646 18.0714 46.4286" stroke="white" stroke-width="3.57143" stroke-linecap="round" stroke-linejoin="round"/>
<path d="M33.9286 4.57144C29.8272 2.20354 24.9531 1.56186 20.3786 2.78753C15.8041 4.01321 11.9038 7.00585 9.53571 11.1072C8.56064 12.7912 7.87266 14.6258 7.5 16.5357" stroke="white" stroke-width="3.57143" stroke-linecap="round" stroke-linejoin="round"/>
<path d="M23.1429 12.5357C24.4564 12.263 25.8144 12.2886 27.1168 12.6107C28.4191 12.9327 29.6326 13.5429 30.6677 14.3964C31.7028 15.2498 32.5332 16.3247 33.0975 17.5418C33.6619 18.7589 33.9459 20.0871 33.9286 21.4286V27.1786" stroke="white" stroke-width="3.57143" stroke-linecap="round" stroke-linejoin="round"/>
<path d="M31.6428 34.6786C30.4277 36.0322 28.8281 36.9823 27.0581 37.4018C25.2881 37.8213 23.4322 37.6902 21.7388 37.0261C20.0454 36.3619 18.5952 35.1964 17.5824 33.6854C16.5696 32.1745 16.0424 30.3902 16.0714 28.5714V21.4286C16.0646 20.202 16.3077 18.9868 16.7857 17.8571" stroke="white" stroke-width="3.57143" stroke-linecap="round" stroke-linejoin="round"/>
<path d="M25 21.8214V27.7857" stroke="white" stroke-width="3.57143" stroke-linecap="round" stroke-linejoin="round"/>
</svg>
