<svg width="50" height="50" viewBox="0 0 50 50" fill="none" xmlns="http://www.w3.org/2000/svg">
<path d="M39.2857 19.6429H10.7143C8.74184 19.6429 7.14285 21.2418 7.14285 23.2143V44.6429C7.14285 46.6153 8.74184 48.2143 10.7143 48.2143H39.2857C41.2582 48.2143 42.8571 46.6153 42.8571 44.6429V23.2143C42.8571 21.2418 41.2582 19.6429 39.2857 19.6429Z" stroke="white" stroke-width="3.57143" stroke-linecap="round" stroke-linejoin="round"/>
<path d="M37.5 19.6428V14.2857C37.5 10.9705 36.183 7.79108 33.8388 5.44687C31.4946 3.10267 28.3152 1.78571 25 1.78571C21.6848 1.78571 18.5054 3.10267 16.1612 5.44687C13.817 7.79108 12.5 10.9705 12.5 14.2857V19.6428" stroke="white" stroke-width="3.57143" stroke-linecap="round" stroke-linejoin="round"/>
<path d="M25 35.7143C25.9862 35.7143 26.7857 34.9148 26.7857 33.9286C26.7857 32.9423 25.9862 32.1429 25 32.1429C24.0138 32.1429 23.2143 32.9423 23.2143 33.9286C23.2143 34.9148 24.0138 35.7143 25 35.7143Z" stroke="white" stroke-width="3.57143" stroke-linecap="round" stroke-linejoin="round"/>
</svg>
