<svg width="50" height="50" viewBox="0 0 50 50" fill="none" xmlns="http://www.w3.org/2000/svg">
<g clip-path="url(#clip0_43_1539)">
<path d="M26.2857 47.9643C25.4583 48.2836 24.5417 48.2836 23.7143 47.9643C17.2581 45.4857 11.7057 41.1068 7.79051 35.4062C3.87532 29.7056 1.78153 22.9514 1.78571 16.0357V6.7143C1.78375 6.32323 1.90772 5.94191 2.13926 5.62675C2.37081 5.31159 2.69765 5.07932 3.07143 4.9643C17.3817 0.715025 32.6183 0.715025 46.9286 4.9643C47.3024 5.07932 47.6292 5.31159 47.8607 5.62675C48.0923 5.94191 48.2162 6.32323 48.2143 6.7143V16.0357C48.2185 22.9514 46.1247 29.7056 42.2095 35.4062C38.2943 41.1068 32.7419 45.4857 26.2857 47.9643Z" stroke="white" stroke-width="3.57143" stroke-linecap="round" stroke-linejoin="round"/>
</g>
<defs>
<clipPath id="clip0_43_1539">
<rect width="50" height="50" fill="white"/>
</clipPath>
</defs>
</svg>
