<svg width="50" height="50" viewBox="0 0 50 50" fill="none" xmlns="http://www.w3.org/2000/svg">
<g clip-path="url(#clip0_43_1356)">
<path d="M25 48.2143C37.8209 48.2143 48.2143 37.8209 48.2143 25C48.2143 12.1791 37.8209 1.78572 25 1.78572C12.1791 1.78572 1.78571 12.1791 1.78571 25C1.78571 37.8209 12.1791 48.2143 25 48.2143Z" stroke="white" stroke-width="3.57143" stroke-linecap="round" stroke-linejoin="round"/>
<path d="M19.6429 19.6429C19.6429 18.5833 19.957 17.5476 20.5457 16.6666C21.1343 15.7856 21.971 15.099 22.9499 14.6935C23.9288 14.288 25.0059 14.182 26.0451 14.3887C27.0843 14.5954 28.0389 15.1056 28.7881 15.8548C29.5373 16.604 30.0475 17.5586 30.2542 18.5977C30.4609 19.6369 30.3548 20.7141 29.9494 21.693C29.5439 22.6718 28.8572 23.5085 27.9763 24.0972C27.0953 24.6858 26.0595 25 25 25V28.5714" stroke="white" stroke-width="3.57143" stroke-linecap="round" stroke-linejoin="round"/>
<path d="M25 33.9286C24.4702 33.9286 23.9524 34.0857 23.5119 34.38C23.0714 34.6743 22.7281 35.0927 22.5253 35.5821C22.3226 36.0715 22.2695 36.6101 22.3729 37.1297C22.4762 37.6493 22.7314 38.1266 23.106 38.5012C23.4806 38.8758 23.9578 39.1309 24.4774 39.2342C24.997 39.3376 25.5356 39.2846 26.025 39.0818C26.5145 38.8791 26.9328 38.5358 27.2271 38.0953C27.5215 37.6548 27.6786 37.1369 27.6786 36.6071C27.6693 35.8996 27.3841 35.2237 26.8838 34.7233C26.3835 34.223 25.7075 33.9378 25 33.9286Z" fill="white"/>
</g>
<defs>
<clipPath id="clip0_43_1356">
<rect width="50" height="50" fill="white"/>
</clipPath>
</defs>
</svg>
