<svg width="50" height="50" viewBox="0 0 50 50" fill="none" xmlns="http://www.w3.org/2000/svg">
<g clip-path="url(#clip0_43_1577)">
<path d="M44.6429 48.3571H10.7143C9.29348 48.3571 7.93087 47.7927 6.92621 46.7881C5.92156 45.7834 5.35714 44.4208 5.35714 43C5.35714 41.5792 5.92156 40.2166 6.92621 39.2119C7.93087 38.2073 9.29348 37.6429 10.7143 37.6429H41.0714C42.0186 37.6429 42.927 37.2666 43.5968 36.5968C44.2666 35.927 44.6429 35.0186 44.6429 34.0714V5.5C44.6429 4.5528 44.2666 3.64439 43.5968 2.97462C42.927 2.30484 42.0186 1.92857 41.0714 1.92857H10.7143C9.31789 1.92807 7.97649 2.47283 6.97584 3.4468C5.97519 4.42077 5.39438 5.74696 5.35714 7.14286V42.8571" stroke="white" stroke-width="3.57143" stroke-linecap="round" stroke-linejoin="round"/>
<path d="M41.0714 37.6429V48.3571" stroke="white" stroke-width="3.57143" stroke-linecap="round" stroke-linejoin="round"/>
</g>
<defs>
<clipPath id="clip0_43_1577">
<rect width="50" height="50" fill="white"/>
</clipPath>
</defs>
</svg>
