<svg width="50" height="50" viewBox="0 0 50 50" fill="none" xmlns="http://www.w3.org/2000/svg">
<g clip-path="url(#clip0_43_1572)">
<path d="M5.35715 19.7857H44.6429V44.7857C44.6429 45.7329 44.2666 46.6413 43.5968 47.3111C42.927 47.9809 42.0186 48.3571 41.0714 48.3571H8.92858C7.98137 48.3571 7.07297 47.9809 6.40319 47.3111C5.73342 46.6413 5.35715 45.7329 5.35715 44.7857V19.7857Z" stroke="white" stroke-width="3.57143" stroke-linecap="round" stroke-linejoin="round"/>
<path d="M48.2143 16.2143V9.07143C48.2143 7.09898 46.6153 5.5 44.6429 5.5L5.35715 5.5C3.3847 5.5 1.78572 7.09898 1.78572 9.07143V16.2143C1.78572 18.1867 3.3847 19.7857 5.35715 19.7857H44.6429C46.6153 19.7857 48.2143 18.1867 48.2143 16.2143Z" stroke="white" stroke-width="3.57143" stroke-linecap="round" stroke-linejoin="round"/>
<path d="M19.6429 30.5H30.3571" stroke="white" stroke-width="3.57143" stroke-linecap="round" stroke-linejoin="round"/>
</g>
<defs>
<clipPath id="clip0_43_1572">
<rect width="50" height="50" fill="white"/>
</clipPath>
</defs>
</svg>
