<svg width="50" height="50" viewBox="0 0 50 50" fill="none" xmlns="http://www.w3.org/2000/svg">
<path d="M28.5714 44.6429C28.5696 45.2517 28.4121 45.8499 28.1141 46.3807C27.816 46.9115 27.3871 47.3574 26.8683 47.6758C26.3494 47.9943 25.7578 48.1749 25.1495 48.2003C24.5412 48.2258 23.9365 48.0954 23.3929 47.8214L9.10714 40.6786C8.51816 40.3818 8.02286 39.9277 7.67615 39.3667C7.32944 38.8056 7.14485 38.1595 7.14285 37.5V1.78571L26.6071 11.5C27.2015 11.7995 27.7004 12.2592 28.0475 12.8271C28.3946 13.3951 28.5761 14.0487 28.5714 14.7143V44.6429Z" stroke="white" stroke-width="3.57143" stroke-linecap="round" stroke-linejoin="round"/>
<path d="M7.14285 1.78571H39.2857C40.2329 1.78571 41.1413 2.16199 41.8111 2.83176C42.4809 3.50153 42.8571 4.40994 42.8571 5.35714V37.5C42.8571 38.4472 42.4809 39.3556 41.8111 40.0254C41.1413 40.6952 40.2329 41.0714 39.2857 41.0714H28.5714" stroke="white" stroke-width="3.57143" stroke-linecap="round" stroke-linejoin="round"/>
</svg>
