<svg width="50" height="50" viewBox="0 0 50 50" fill="none" xmlns="http://www.w3.org/2000/svg">
<g clip-path="url(#clip0_43_1231)">
<path d="M21.8929 43.0714C16.4286 48.5714 7.14286 50.3928 1.78571 44.8928C8.92857 37.5 1.78571 33.9286 7.14286 28.5714C8.08352 27.5236 9.22797 26.6786 10.5063 26.088C11.7846 25.4974 13.1699 25.1737 14.5775 25.1367C15.9851 25.0997 17.3856 25.35 18.6931 25.8725C20.0007 26.395 21.1881 27.1787 22.1825 28.1756C23.177 29.1725 23.9578 30.3617 24.4771 31.6706C24.9964 32.9795 25.2433 34.3805 25.2029 35.788C25.1624 37.1956 24.8353 38.5801 24.2416 39.8569C23.6479 41.1338 22.8001 42.2762 21.75 43.2143L21.8929 43.0714Z" stroke="white" stroke-width="3.57143" stroke-linecap="round" stroke-linejoin="round"/>
<path d="M46.1429 3.85713C45.4502 3.16891 44.6238 2.63001 43.7146 2.27373C42.8055 1.91745 41.833 1.75135 40.8571 1.7857C39.8819 1.81221 38.9225 2.0382 38.038 2.44974C37.1535 2.86128 36.3627 3.44965 35.7143 4.17856L16.5 25.6071C18.5604 26.0151 20.4441 27.0506 21.8929 28.5714C23.1958 29.8691 24.1429 31.4803 24.6429 33.25L45.8214 14.2857C46.546 13.6414 47.1319 12.8563 47.5433 11.9783C47.9546 11.1003 48.183 10.1477 48.2143 9.17856C48.2536 8.19679 48.0899 7.21747 47.7335 6.30184C47.3771 5.38621 46.8356 4.55396 46.1429 3.85713Z" stroke="white" stroke-width="3.57143" stroke-linecap="round" stroke-linejoin="round"/>
</g>
<defs>
<clipPath id="clip0_43_1231">
<rect width="50" height="50" fill="white"/>
</clipPath>
</defs>
</svg>
