<svg width="50" height="50" viewBox="0 0 50 50" fill="none" xmlns="http://www.w3.org/2000/svg">
<g clip-path="url(#clip0_43_1306)">
<path d="M1.78571 48.2143H41.0714" stroke="white" stroke-width="3.57143" stroke-linecap="round" stroke-linejoin="round"/>
<path d="M23.2143 35.7143L12.5 37.6429L14.2857 26.7857L38.3214 2.82144C38.6534 2.48669 39.0484 2.221 39.4837 2.03968C39.9189 1.85837 40.3857 1.76501 40.8571 1.76501C41.3286 1.76501 41.7954 1.85837 42.2306 2.03968C42.6658 2.221 43.0608 2.48669 43.3929 2.82144L47.1786 6.60715C47.5133 6.93916 47.779 7.33417 47.9603 7.76938C48.1416 8.20459 48.235 8.67139 48.235 9.14287C48.235 9.61434 48.1416 10.0811 47.9603 10.5164C47.779 10.9516 47.5133 11.3466 47.1786 11.6786L23.2143 35.7143Z" stroke="white" stroke-width="3.57143" stroke-linecap="round" stroke-linejoin="round"/>
</g>
<defs>
<clipPath id="clip0_43_1306">
<rect width="50" height="50" fill="white"/>
</clipPath>
</defs>
</svg>
