<svg width="50" height="50" viewBox="0 0 50 50" fill="none" xmlns="http://www.w3.org/2000/svg">
<path d="M15.1785 1.78571L7.14275 20.75C7.03161 21.0205 6.98861 21.3142 7.01755 21.6053C7.04649 21.8963 7.14646 22.1758 7.3087 22.4191C7.47093 22.6625 7.69046 22.8623 7.94798 23.0009C8.2055 23.1395 8.49314 23.2128 8.78561 23.2143H18.7499L11.607 48.2143L42.2856 19.1428C42.5404 18.8973 42.7166 18.5816 42.7916 18.2357C42.8667 17.8899 42.8373 17.5295 42.7072 17.2004C42.5771 16.8713 42.3521 16.5883 42.0609 16.3873C41.7696 16.1863 41.4252 16.0763 41.0713 16.0714H27.6785L34.8213 1.78571H15.1785Z" stroke="white" stroke-width="3.57143" stroke-linecap="round" stroke-linejoin="round"/>
</svg>
