<svg width="50" height="50" viewBox="0 0 50 50" fill="none" xmlns="http://www.w3.org/2000/svg">
<path d="M43.8928 19.2857C45.25 20.5 46.3928 21.6786 47.25 22.6071C47.8423 23.2634 48.1701 24.116 48.1701 25C48.1701 25.884 47.8423 26.7366 47.25 27.3928C43.5 31.4286 34.9643 39.2857 25 39.2857H23.5714" stroke="white" stroke-width="3.57143" stroke-linecap="round" stroke-linejoin="round"/>
<path d="M13.8214 36.1786C9.68438 33.8616 5.94631 30.8953 2.74997 27.3929C2.15769 26.7366 1.82983 25.884 1.82983 25C1.82983 24.116 2.15769 23.2634 2.74997 22.6072C6.49997 18.5714 15.0357 10.7143 25 10.7143C28.9277 10.7964 32.7718 11.8649 36.1785 13.8214" stroke="white" stroke-width="3.57143" stroke-linecap="round" stroke-linejoin="round"/>
<path d="M44.6428 5.35715L5.35712 44.6429" stroke="white" stroke-width="3.57143" stroke-linecap="round" stroke-linejoin="round"/>
<path d="M19.9643 30.0357C18.6229 28.7023 17.8651 26.8914 17.8571 25C17.8571 23.1056 18.6097 21.2888 19.9492 19.9492C21.2888 18.6097 23.1056 17.8571 25 17.8571C26.8913 17.8651 28.7023 18.6229 30.0357 19.9643" stroke="white" stroke-width="3.57143" stroke-linecap="round" stroke-linejoin="round"/>
<path d="M31.2143 28.5714C30.5785 29.6582 29.6668 30.5577 28.5714 31.1786" stroke="white" stroke-width="3.57143" stroke-linecap="round" stroke-linejoin="round"/>
</svg>
