<svg width="50" height="50" viewBox="0 0 50 50" fill="none" xmlns="http://www.w3.org/2000/svg">
<g clip-path="url(#clip0_43_1458)">
<path d="M12.0358 20.8929L21.1072 6.39286C21.4588 5.81975 21.9528 5.34746 22.5411 5.022C23.1294 4.69654 23.792 4.52901 24.4643 4.53572C24.9938 4.51661 25.5218 4.60384 26.017 4.79225C26.5122 4.98066 26.9646 5.26643 27.3475 5.63267C27.7304 5.99891 28.036 6.43819 28.2462 6.92455C28.4565 7.4109 28.5671 7.93447 28.5715 8.46429V18.8572H44.2501C44.8294 18.8759 45.3982 19.0171 45.919 19.2715C46.4399 19.5258 46.901 19.8875 47.2721 20.3328C47.6432 20.7781 47.9158 21.2969 48.0721 21.8551C48.2283 22.4133 48.2646 22.9982 48.1786 23.5714L45.3215 42C45.1996 42.9849 44.7222 43.8913 43.9791 44.549C43.2359 45.2066 42.2781 45.5702 41.2858 45.5714H17.8572C16.7419 45.5758 15.6411 45.319 14.6429 44.8214L12.0715 43.5357" stroke="white" stroke-width="3.57143" stroke-linecap="round" stroke-linejoin="round"/>
<path d="M12.0358 20.8929V43.4286" stroke="white" stroke-width="3.57143" stroke-linecap="round" stroke-linejoin="round"/>
<path d="M3.57148 20.8929H12.0358V43.4286H3.57148C3.09788 43.4286 2.64368 43.2404 2.30879 42.9055C1.9739 42.5707 1.78577 42.1165 1.78577 41.6429V22.6786C1.78577 22.205 1.9739 21.7508 2.30879 21.4159C2.64368 21.081 3.09788 20.8929 3.57148 20.8929Z" stroke="white" stroke-width="3.57143" stroke-linecap="round" stroke-linejoin="round"/>
</g>
<defs>
<clipPath id="clip0_43_1458">
<rect width="50" height="50" fill="white"/>
</clipPath>
</defs>
</svg>
