<svg width="50" height="50" viewBox="0 0 50 50" fill="none" xmlns="http://www.w3.org/2000/svg">
<g clip-path="url(#clip0_43_1361)">
<path d="M14.2857 23.1786L2.82144 34.5357C2.48669 34.8677 2.221 35.2627 2.03968 35.698C1.85837 36.1332 1.76501 36.6 1.76501 37.0714C1.76501 37.5429 1.85837 38.0097 2.03968 38.4449C2.221 38.8801 2.48669 39.2752 2.82144 39.6072L10.3929 47.1786C10.7249 47.5133 11.1199 47.779 11.5551 47.9603C11.9903 48.1417 12.4571 48.235 12.9286 48.235C13.4001 48.235 13.8669 48.1417 14.3021 47.9603C14.7373 47.779 15.1323 47.5133 15.4643 47.1786L26.8214 35.7143" stroke="white" stroke-width="3.57143" stroke-linecap="round" stroke-linejoin="round"/>
<path d="M35.7143 26.8214L47.0714 15.4643C47.4062 15.1323 47.6719 14.7373 47.8532 14.3021C48.0345 13.8669 48.1279 13.4001 48.1279 12.9286C48.1279 12.4571 48.0345 11.9903 47.8532 11.5551C47.6719 11.1199 47.4062 10.7249 47.0714 10.3929L39.6072 2.82144C39.2752 2.48669 38.8801 2.221 38.4449 2.03968C38.0097 1.85837 37.5429 1.76501 37.0714 1.76501C36.6 1.76501 36.1332 1.85837 35.698 2.03968C35.2627 2.221 34.8677 2.48669 34.5357 2.82144L23.1786 14.2857" stroke="white" stroke-width="3.57143" stroke-linecap="round" stroke-linejoin="round"/>
<path d="M32.1429 17.8571L17.8572 32.1429" stroke="white" stroke-width="3.57143" stroke-linecap="round" stroke-linejoin="round"/>
</g>
<defs>
<clipPath id="clip0_43_1361">
<rect width="50" height="50" fill="white"/>
</clipPath>
</defs>
</svg>
