<svg width="50" height="50" viewBox="0 0 50 50" fill="none" xmlns="http://www.w3.org/2000/svg">
<g clip-path="url(#clip0_43_1859)">
<path d="M20.7786 39.2571L28.5715 47.0393C29.0552 47.5231 29.6546 47.8752 30.3127 48.0622C30.9708 48.2492 31.6658 48.2649 32.3317 48.1078C32.9975 47.9507 33.6122 47.6261 34.1174 47.1647C34.6225 46.7033 35.0013 46.1204 35.2179 45.4714L48.0072 7.06785C48.2434 6.36095 48.2779 5.60221 48.1069 4.87676C47.9359 4.15132 47.5662 3.48787 47.0392 2.96084C46.5122 2.43382 45.8487 2.06408 45.1233 1.8931C44.3978 1.72211 43.6391 1.75666 42.9322 1.99285L4.52859 14.7929C3.88166 15.0102 3.30084 15.389 2.84099 15.8933C2.38115 16.3976 2.05747 17.0108 1.90054 17.675C1.7436 18.3392 1.7586 19.0324 1.94411 19.6892C2.12962 20.346 2.47951 20.9446 2.96074 21.4286L12.75 31.2286L12.4179 43.6036L20.7786 39.2571Z" stroke="white" stroke-width="3.57143" stroke-linecap="round" stroke-linejoin="round"/>
<path d="M46.8607 2.79285L12.75 31.2286" stroke="white" stroke-width="3.57143" stroke-linecap="round" stroke-linejoin="round"/>
</g>
<defs>
<clipPath id="clip0_43_1859">
<rect width="50" height="50" fill="white"/>
</clipPath>
</defs>
</svg>
