<svg width="50" height="50" viewBox="0 0 50 50" fill="none" xmlns="http://www.w3.org/2000/svg">
<g clip-path="url(#clip0_43_1382)">
<path d="M9.82142 33.0357C14.2594 33.0357 17.8571 29.438 17.8571 25C17.8571 20.562 14.2594 16.9643 9.82142 16.9643C5.38342 16.9643 1.78571 20.562 1.78571 25C1.78571 29.438 5.38342 33.0357 9.82142 33.0357Z" stroke="white" stroke-width="3.57143" stroke-linecap="round" stroke-linejoin="round"/>
<path d="M40.1785 48.2143C44.6165 48.2143 48.2143 44.6166 48.2143 40.1786C48.2143 35.7406 44.6165 32.1429 40.1785 32.1429C35.7405 32.1429 32.1428 35.7406 32.1428 40.1786C32.1428 44.6166 35.7405 48.2143 40.1785 48.2143Z" stroke="white" stroke-width="3.57143" stroke-linecap="round" stroke-linejoin="round"/>
<path d="M40.1785 17.8571C44.6165 17.8571 48.2143 14.2594 48.2143 9.82142C48.2143 5.38342 44.6165 1.78571 40.1785 1.78571C35.7405 1.78571 32.1428 5.38342 32.1428 9.82142C32.1428 14.2594 35.7405 17.8571 40.1785 17.8571Z" stroke="white" stroke-width="3.57143" stroke-linecap="round" stroke-linejoin="round"/>
<path d="M17 21.4286L33 13.3929" stroke="white" stroke-width="3.57143" stroke-linecap="round" stroke-linejoin="round"/>
<path d="M17 28.5714L33 36.6071" stroke="white" stroke-width="3.57143" stroke-linecap="round" stroke-linejoin="round"/>
</g>
<defs>
<clipPath id="clip0_43_1382">
<rect width="50" height="50" fill="white"/>
</clipPath>
</defs>
</svg>
