<svg width="50" height="50" viewBox="0 0 50 50" fill="none" xmlns="http://www.w3.org/2000/svg">
<path d="M26.75 3.89287L32.4285 15.3572C32.5577 15.6481 32.7609 15.9002 33.0178 16.0882C33.2747 16.2762 33.5764 16.3935 33.8928 16.4286L46.4285 18.2857C46.7915 18.3324 47.1337 18.4813 47.4152 18.7152C47.6967 18.9491 47.9058 19.2582 48.0181 19.6065C48.1305 19.9548 48.1414 20.3278 48.0497 20.6821C47.9579 21.0363 47.7673 21.3572 47.5 21.6072L38.4643 30.5714C38.2337 30.7869 38.0606 31.0566 37.9608 31.356C37.861 31.6554 37.8376 31.975 37.8928 32.2857L40.0714 44.8929C40.1345 45.2551 40.0946 45.6278 39.9563 45.9685C39.8181 46.3092 39.5869 46.6043 39.2892 46.8201C38.9915 47.036 38.6392 47.1639 38.2724 47.1894C37.9056 47.2149 37.5389 47.1369 37.2143 46.9643L25.9286 41C25.6396 40.8581 25.3219 40.7844 25 40.7844C24.678 40.7844 24.3604 40.8581 24.0714 41L12.7857 46.9643C12.461 47.1369 12.0944 47.2149 11.7276 47.1894C11.3607 47.1639 11.0084 47.036 10.7107 46.8201C10.413 46.6043 10.1819 46.3092 10.0436 45.9685C9.90534 45.6278 9.86547 45.2551 9.92855 44.8929L12.1071 32.1429C12.1623 31.8321 12.139 31.5125 12.0392 31.2131C11.9394 30.9137 11.7663 30.644 11.5357 30.4286L2.39284 21.6072C2.12235 21.3504 1.93212 21.0206 1.84521 20.6579C1.75829 20.2952 1.77842 19.9151 1.90315 19.5636C2.02787 19.2121 2.25185 18.9043 2.54795 18.6775C2.84404 18.4507 3.19955 18.3146 3.57141 18.2857L16.1071 16.4286C16.4235 16.3935 16.7252 16.2762 16.9822 16.0882C17.2391 15.9002 17.4423 15.6481 17.5714 15.3572L23.25 3.89287C23.4046 3.55897 23.6516 3.27628 23.9616 3.07816C24.2717 2.88005 24.632 2.77478 25 2.77478C25.3679 2.77478 25.7282 2.88005 26.0383 3.07816C26.3484 3.27628 26.5953 3.55897 26.75 3.89287Z" stroke="white" stroke-width="3.57143" stroke-linecap="round" stroke-linejoin="round"/>
</svg>
