<svg width="50" height="50" viewBox="0 0 50 50" fill="none" xmlns="http://www.w3.org/2000/svg">
<path d="M47.25 22.6072C47.8423 23.2634 48.1701 24.116 48.1701 25C48.1701 25.884 47.8423 26.7366 47.25 27.3929C43.5 31.4286 34.9643 39.2857 25 39.2857C15.0357 39.2857 6.49997 31.4286 2.74997 27.3929C2.15769 26.7366 1.82983 25.884 1.82983 25C1.82983 24.116 2.15769 23.2634 2.74997 22.6072C6.49997 18.5714 15.0357 10.7143 25 10.7143C34.9643 10.7143 43.5 18.5714 47.25 22.6072Z" stroke="white" stroke-width="3.57143" stroke-linecap="round" stroke-linejoin="round"/>
<path d="M25 32.1429C28.9449 32.1429 32.1428 28.9449 32.1428 25C32.1428 21.0551 28.9449 17.8571 25 17.8571C21.0551 17.8571 17.8571 21.0551 17.8571 25C17.8571 28.9449 21.0551 32.1429 25 32.1429Z" stroke="white" stroke-width="3.57143" stroke-linecap="round" stroke-linejoin="round"/>
</svg>
