<svg width="50" height="50" viewBox="0 0 50 50" fill="none" xmlns="http://www.w3.org/2000/svg">
<g clip-path="url(#clip0_43_1323)">
<path d="M48.2143 25H19.6429" stroke="white" stroke-width="3.57143" stroke-linecap="round" stroke-linejoin="round"/>
<path d="M26.7857 17.8571L19.6429 25L26.7857 32.1429" stroke="white" stroke-width="3.57143" stroke-linecap="round" stroke-linejoin="round"/>
<path d="M44.5714 37.5C41.8679 41.7308 37.8655 44.9711 33.1647 46.7348C28.4638 48.4986 23.3178 48.6907 18.4985 47.2824C13.6792 45.8741 9.44641 42.9413 6.43492 38.9238C3.42344 34.9064 1.79562 30.0208 1.79562 25C1.79562 19.9791 3.42344 15.0936 6.43492 11.0762C9.44641 7.05872 13.6792 4.12591 18.4985 2.7176C23.3178 1.3093 28.4638 1.50143 33.1647 3.26516C37.8655 5.0289 41.8679 8.26917 44.5714 12.5" stroke="white" stroke-width="3.57143" stroke-linecap="round" stroke-linejoin="round"/>
</g>
<defs>
<clipPath id="clip0_43_1323">
<rect width="50" height="50" fill="white"/>
</clipPath>
</defs>
</svg>
