<svg width="50" height="50" viewBox="0 0 50 50" fill="none" xmlns="http://www.w3.org/2000/svg">
<g clip-path="url(#clip0_43_1328)">
<path d="M23.2143 25H48.2143" stroke="white" stroke-width="3.57143" stroke-linecap="round" stroke-linejoin="round"/>
<path d="M41.0714 17.8571L48.2143 25L41.0714 32.1429" stroke="white" stroke-width="3.57143" stroke-linecap="round" stroke-linejoin="round"/>
<path d="M41.7857 41.0357C38.5787 44.3784 34.445 46.6852 29.9163 47.6594C25.3876 48.6336 20.671 48.2307 16.3731 46.5024C12.0753 44.7741 8.3928 41.7995 5.79931 37.9613C3.20582 34.123 1.81994 29.5966 1.81994 24.9643C1.81994 20.332 3.20582 15.8056 5.79931 11.9673C8.3928 8.12909 12.0753 5.15451 16.3731 3.42623C20.671 1.69794 25.3876 1.29498 29.9163 2.26918C34.445 3.24337 38.5787 5.55017 41.7857 8.89287" stroke="white" stroke-width="3.57143" stroke-linecap="round" stroke-linejoin="round"/>
</g>
<defs>
<clipPath id="clip0_43_1328">
<rect width="50" height="50" fill="white"/>
</clipPath>
</defs>
</svg>
