<svg width="50" height="50" viewBox="0 0 50 50" fill="none" xmlns="http://www.w3.org/2000/svg">
<path d="M44.6429 12.5H5.35714C3.3847 12.5 1.78571 14.099 1.78571 16.0714V33.9286C1.78571 35.901 3.3847 37.5 5.35714 37.5H44.6429C46.6153 37.5 48.2143 35.901 48.2143 33.9286V16.0714C48.2143 14.099 46.6153 12.5 44.6429 12.5Z" stroke="white" stroke-width="3.57143" stroke-linecap="round" stroke-linejoin="round"/>
<path d="M12.5 26.7857C13.4862 26.7857 14.2857 25.9862 14.2857 25C14.2857 24.0138 13.4862 23.2143 12.5 23.2143C11.5138 23.2143 10.7143 24.0138 10.7143 25C10.7143 25.9862 11.5138 26.7857 12.5 26.7857Z" stroke="white" stroke-width="3.57143" stroke-linecap="round" stroke-linejoin="round"/>
<path d="M23.2143 26.7857C24.2005 26.7857 25 25.9862 25 25C25 24.0138 24.2005 23.2143 23.2143 23.2143C22.2281 23.2143 21.4286 24.0138 21.4286 25C21.4286 25.9862 22.2281 26.7857 23.2143 26.7857Z" stroke="white" stroke-width="3.57143" stroke-linecap="round" stroke-linejoin="round"/>
<path d="M33.9286 28.5714H39.2857" stroke="white" stroke-width="3.57143" stroke-linecap="round" stroke-linejoin="round"/>
</svg>
