<svg width="50" height="50" viewBox="0 0 50 50" fill="none" xmlns="http://www.w3.org/2000/svg">
<g clip-path="url(#clip0_43_1592)">
<path d="M21.9643 1.89286C21.7484 1.76387 21.5015 1.69576 21.25 1.69576C20.9985 1.69576 20.7516 1.76387 20.5357 1.89286C20.3576 2.03398 20.2374 2.23551 20.1979 2.4593C20.1584 2.68308 20.2024 2.91358 20.3214 3.10714C24.7143 10.7143 25.6429 21.0714 19.6429 26.7857C17.3344 24.8458 15.5017 22.4022 14.2857 19.6429C12.0669 20.8752 10.228 22.6918 8.96881 24.8954C7.70957 27.0991 7.07807 29.6056 7.14286 32.1429C7.23343 34.3796 7.77048 36.5756 8.7224 38.6016C9.67432 40.6277 11.0219 42.4429 12.6858 43.9404C14.3497 45.4379 16.2963 46.5875 18.4111 47.3215C20.5259 48.0554 22.7661 48.359 25 48.2143C36.5 48.2143 42.4643 41.0714 42.8571 32.1429C43.3214 21.4286 35.7143 8.25 21.9643 1.89286Z" stroke="white" stroke-width="3.57143" stroke-linecap="round" stroke-linejoin="round"/>
<path d="M33.9286 32.1429C33.9286 34.0373 33.176 35.8541 31.8365 37.1936C30.4969 38.5332 28.6801 39.2857 26.7857 39.2857" stroke="white" stroke-width="3.57143" stroke-linecap="round" stroke-linejoin="round"/>
</g>
<defs>
<clipPath id="clip0_43_1592">
<rect width="50" height="50" fill="white"/>
</clipPath>
</defs>
</svg>
