<svg width="50" height="50" viewBox="0 0 50 50" fill="none" xmlns="http://www.w3.org/2000/svg">
<path d="M19.6429 32.1429H1.78572V42.8571C1.78572 43.8043 2.16199 44.7128 2.83176 45.3825C3.50154 46.0523 4.40994 46.4286 5.35714 46.4286H16.0714C17.0186 46.4286 17.927 46.0523 18.5968 45.3825C19.2666 44.7128 19.6429 43.8043 19.6429 42.8571V32.1429Z" stroke="white" stroke-width="3.57143" stroke-linecap="round" stroke-linejoin="round"/>
<path d="M48.2143 32.1429H30.3571V42.8571C30.3571 43.8043 30.7334 44.7128 31.4032 45.3825C32.073 46.0523 32.9814 46.4286 33.9286 46.4286H44.6429C45.5901 46.4286 46.4985 46.0523 47.1682 45.3825C47.838 44.7128 48.2143 43.8043 48.2143 42.8571V32.1429Z" stroke="white" stroke-width="3.57143" stroke-linecap="round" stroke-linejoin="round"/>
<path d="M19.6429 32.1429H30.3571" stroke="white" stroke-width="3.57143" stroke-linecap="round" stroke-linejoin="round"/>
<path d="M48.2143 32.1429V10.7143C48.2143 8.81988 47.4617 7.00307 46.1222 5.66352C44.7826 4.32398 42.9658 3.57143 41.0714 3.57143H37.5" stroke="white" stroke-width="3.57143" stroke-linecap="round" stroke-linejoin="round"/>
<path d="M1.78572 32.1429V10.7143C1.78572 8.81988 2.53826 7.00307 3.87781 5.66352C5.21736 4.32398 7.03417 3.57143 8.92857 3.57143H12.5" stroke="white" stroke-width="3.57143" stroke-linecap="round" stroke-linejoin="round"/>
</svg>
