<svg width="50" height="50" viewBox="0 0 50 50" fill="none" xmlns="http://www.w3.org/2000/svg">
<g clip-path="url(#clip0_43_1607)">
<path d="M1.78571 48.2143L48.2143 1.78571" stroke="white" stroke-width="3.57143" stroke-linecap="round" stroke-linejoin="round"/>
<path d="M21.4286 48.2143H28.5714" stroke="white" stroke-width="3.57143" stroke-linecap="round" stroke-linejoin="round"/>
<path d="M31.1786 3C28.7343 1.99158 26.0793 1.60042 23.448 1.86105C20.8167 2.12168 18.2901 3.02609 16.0911 4.49443C13.8921 5.96276 12.0885 7.94988 10.8393 10.2804C9.59013 12.6108 8.93391 15.213 8.92856 17.8571V26.7857" stroke="white" stroke-width="3.57143" stroke-linecap="round" stroke-linejoin="round"/>
<path d="M10.7143 39.2857H48.2143C46.3199 39.2857 44.503 38.5332 43.1635 37.1936C41.824 35.8541 41.0714 34.0373 41.0714 32.1429V17.8571C41.0475 15.3687 40.4356 12.9212 39.2857 10.7143" stroke="white" stroke-width="3.57143" stroke-linecap="round" stroke-linejoin="round"/>
</g>
<defs>
<clipPath id="clip0_43_1607">
<rect width="50" height="50" fill="white"/>
</clipPath>
</defs>
</svg>
