<svg width="50" height="50" viewBox="0 0 50 50" fill="none" xmlns="http://www.w3.org/2000/svg">
<g clip-path="url(#clip0_43_1596)">
<path d="M48.2143 44.6429C48.2143 45.5901 47.838 46.4985 47.1682 47.1682C46.4985 47.838 45.5901 48.2143 44.6429 48.2143H5.35714C4.40994 48.2143 3.50153 47.838 2.83176 47.1682C2.16199 46.4985 1.78571 45.5901 1.78571 44.6429V12.5L12.5 1.78571H44.6429C45.5901 1.78571 46.4985 2.16199 47.1682 2.83176C47.838 3.50153 48.2143 4.40994 48.2143 5.35714V44.6429Z" stroke="white" stroke-width="3.57143" stroke-linecap="round" stroke-linejoin="round"/>
<path d="M37.5 30.3571H12.5V48.2143H37.5V30.3571Z" stroke="white" stroke-width="3.57143" stroke-linecap="round" stroke-linejoin="round"/>
<path d="M37.5 1.78571H16.0714V16.0714H37.5V1.78571Z" stroke="white" stroke-width="3.57143" stroke-linecap="round" stroke-linejoin="round"/>
</g>
<defs>
<clipPath id="clip0_43_1596">
<rect width="50" height="50" fill="white"/>
</clipPath>
</defs>
</svg>
