<svg width="50" height="50" viewBox="0 0 50 50" fill="none" xmlns="http://www.w3.org/2000/svg">
<path d="M1.78571 25.2857H9.60713C9.93646 25.2819 10.2589 25.1906 10.5413 25.0212C10.8237 24.8517 11.056 24.6102 11.2143 24.3214L17.6428 11.4643C17.8013 11.1442 18.0539 10.8802 18.3667 10.7078C18.6795 10.5355 19.0376 10.4629 19.3928 10.5C19.7467 10.5239 20.0844 10.657 20.3594 10.8808C20.6345 11.1047 20.8333 11.4084 20.9286 11.75L28.8928 38.25C28.9974 38.6095 29.2122 38.927 29.507 39.1577C29.8018 39.3884 30.1617 39.5207 30.5357 39.5357C30.8862 39.5241 31.2255 39.4095 31.5113 39.2063C31.7972 39.003 32.0168 38.7201 32.1428 38.3929L37.0357 26.4286C37.1704 26.093 37.402 25.805 37.7009 25.6015C37.9999 25.398 38.3526 25.288 38.7143 25.2857H48.2143" stroke="white" stroke-width="3.57143" stroke-linecap="round" stroke-linejoin="round"/>
</svg>
