<svg width="50" height="50" viewBox="0 0 50 50" fill="none" xmlns="http://www.w3.org/2000/svg">
<g clip-path="url(#clip0_43_1835)">
<path d="M25 48.2143C37.8211 48.2143 48.2143 37.8211 48.2143 25C48.2143 12.1791 37.8211 1.78571 25 1.78571C12.1791 1.78571 1.78571 12.1791 1.78571 25C1.78571 37.8211 12.1791 48.2143 25 48.2143Z" stroke="white" stroke-width="3.57143" stroke-linecap="round" stroke-linejoin="round"/>
<path d="M13.2143 28.5714C15 35 22.1429 38.9286 28.5714 37.1429C32.5 35.7143 35.7143 32.5 36.7857 28.5714" stroke="white" stroke-width="3.57143" stroke-linecap="round" stroke-linejoin="round"/>
<path d="M17.1429 19.4643C16.6497 19.4643 16.25 19.0645 16.25 18.5714C16.25 18.0783 16.6497 17.6786 17.1429 17.6786" stroke="white" stroke-width="3.57143" stroke-linecap="round" stroke-linejoin="round"/>
<path d="M17.1429 19.4643C17.636 19.4643 18.0357 19.0645 18.0357 18.5714C18.0357 18.0783 17.636 17.6786 17.1429 17.6786" stroke="white" stroke-width="3.57143" stroke-linecap="round" stroke-linejoin="round"/>
<path d="M32.8571 19.4643C32.364 19.4643 31.9643 19.0645 31.9643 18.5714C31.9643 18.0783 32.364 17.6786 32.8571 17.6786" stroke="white" stroke-width="3.57143" stroke-linecap="round" stroke-linejoin="round"/>
<path d="M32.8571 19.4643C33.3503 19.4643 33.75 19.0645 33.75 18.5714C33.75 18.0783 33.3503 17.6786 32.8571 17.6786" stroke="white" stroke-width="3.57143" stroke-linecap="round" stroke-linejoin="round"/>
</g>
<defs>
<clipPath id="clip0_43_1835">
<rect width="50" height="50" fill="white"/>
</clipPath>
</defs>
</svg>
