<svg width="50" height="50" viewBox="0 0 50 50" fill="none" xmlns="http://www.w3.org/2000/svg">
<path d="M28.5714 25C28.5883 20.6701 29.7294 16.4188 31.883 12.6624C34.0366 8.90607 37.129 5.77347 40.8572 3.57142C38.0926 2.42683 35.1348 1.82074 32.1429 1.78571C25.9861 1.78571 20.0814 4.23149 15.7279 8.58501C11.3744 12.9385 8.92859 18.8432 8.92859 25C8.92859 31.1568 11.3744 37.0614 15.7279 41.415C20.0814 45.7685 25.9861 48.2143 32.1429 48.2143C35.1709 48.1929 38.1663 47.5866 40.9643 46.4286C37.2162 44.2399 34.1025 41.1131 31.9295 37.3558C29.7566 33.5985 28.5992 29.3403 28.5714 25Z" stroke="white" stroke-width="3.57143" stroke-linecap="round" stroke-linejoin="round"/>
</svg>
