<svg width="50" height="50" viewBox="0 0 50 50" fill="none" xmlns="http://www.w3.org/2000/svg">
<path d="M18.6786 8.03571L20.2143 4.07142C20.4733 3.40022 20.9289 2.82289 21.5216 2.41504C22.1143 2.00718 22.8163 1.78783 23.5357 1.78571H26.4643C27.1837 1.78783 27.8857 2.00718 28.4784 2.41504C29.0711 2.82289 29.5267 3.40022 29.7857 4.07142L31.3214 8.03571L36.5357 11.0357L40.75 10.3928C41.4517 10.2976 42.1659 10.4131 42.8018 10.7247C43.4378 11.0363 43.9667 11.5299 44.3214 12.1428L45.75 14.6428C46.1161 15.2655 46.2847 15.9846 46.2337 16.7051C46.1827 17.4256 45.9144 18.1137 45.4643 18.6786L42.8571 22V28L45.5357 31.3214C45.9859 31.8863 46.2541 32.5744 46.3051 33.2949C46.3561 34.0154 46.1875 34.7345 45.8214 35.3571L44.3929 37.8571C44.0381 38.47 43.5092 38.9637 42.8733 39.2753C42.2374 39.5869 41.5232 39.7024 40.8214 39.6071L36.6071 38.9643L31.3929 41.9643L29.8571 45.9286C29.5981 46.5998 29.1425 47.1771 28.5498 47.5849C27.9572 47.9928 27.2551 48.2122 26.5357 48.2143H23.5357C22.8163 48.2122 22.1143 47.9928 21.5216 47.5849C20.9289 47.1771 20.4733 46.5998 20.2143 45.9286L18.6786 41.9643L13.4643 38.9643L9.25 39.6071C8.54827 39.7024 7.83407 39.5869 7.19815 39.2753C6.56223 38.9637 6.0333 38.47 5.67857 37.8571L4.25 35.3571C3.88393 34.7345 3.71527 34.0154 3.76628 33.2949C3.81729 32.5744 4.08557 31.8863 4.53571 31.3214L7.14286 28V22L4.46428 18.6786C4.01414 18.1137 3.74586 17.4256 3.69485 16.7051C3.64385 15.9846 3.8125 15.2655 4.17857 14.6428L5.60714 12.1428C5.96187 11.5299 6.4908 11.0363 7.12672 10.7247C7.76264 10.4131 8.47684 10.2976 9.17857 10.3928L13.3929 11.0357L18.6786 8.03571ZM17.8571 25C17.8571 26.4127 18.2761 27.7937 19.0609 28.9683C19.8458 30.143 20.9614 31.0585 22.2665 31.5991C23.5717 32.1398 25.0079 32.2812 26.3935 32.0056C27.7791 31.73 29.0518 31.0497 30.0508 30.0508C31.0497 29.0518 31.73 27.7791 32.0056 26.3935C32.2812 25.0079 32.1398 23.5717 31.5991 22.2665C31.0585 20.9614 30.143 19.8458 28.9684 19.0609C27.7937 18.2761 26.4127 17.8571 25 17.8571C23.1056 17.8571 21.2888 18.6097 19.9492 19.9492C18.6097 21.2888 17.8571 23.1056 17.8571 25Z" stroke="white" stroke-width="3.57143" stroke-linecap="round" stroke-linejoin="round"/>
</svg>
