<svg width="463" height="110" viewBox="0 0 463 110" fill="none" xmlns="http://www.w3.org/2000/svg">
<path d="M89.6586 68.0089L25.121 3.39017C22.5674 1.20662 19.7292 0.0526333 16.9194 0.00175883C14.044 -0.0503046 11.1983 1.05289 8.71788 3.39017L4.37583 7.73773C-2.76941 14.6657 -0.110065 17.8829 4.85834 22.7122L33.6951 51.5852C35.5792 53.4716 35.5792 56.5301 33.6951 58.4166L5.26519 86.8822L5.26327 86.8842C2.97458 89.2033 1.68097 92.34 1.68097 95.6268C1.68097 98.897 2.97458 102.05 5.26327 104.37L7.58513 106.722C9.87383 109.041 12.9918 110 16.2424 110C19.493 110 22.478 109.269 24.7833 106.95L52.9929 78.7047C54.8769 76.8183 57.9316 76.8183 59.8156 78.7047L89.6586 108.585C90.6006 109.528 91.8353 110 93.07 110C94.3047 110 95.5393 109.528 96.4814 108.585L146.587 58.4166C148.471 56.5301 148.471 53.4716 146.587 51.5852L96.4814 1.41659C95.5393 0.473387 94.3047 0.00177941 93.07 0.00176348C91.8353 0.00174755 90.6006 0.473355 89.6586 1.41659L68.4997 22.6022C66.6156 24.4886 66.6156 27.5471 68.4997 29.4335L81.9395 42.8903C83.8235 44.7767 86.8782 44.7767 88.7623 42.8903L89.6586 41.9928C91.5426 40.1064 94.5973 40.1064 96.4814 41.9928L106.062 51.5852C107.946 53.4716 107.946 56.5301 106.062 58.4166L96.4814 68.0089C94.5973 69.8953 91.5426 69.8953 89.6586 68.0089Z" fill="white"/>
<path d="M181.872 57C181.584 57 181.344 56.904 181.152 56.712C180.96 56.52 180.864 56.28 180.864 55.992C180.864 55.896 180.88 55.8 180.912 55.704C180.944 55.608 180.976 55.512 181.008 55.416L191.76 39.864L181.68 24.984C181.584 24.792 181.536 24.6 181.536 24.408C181.536 24.12 181.632 23.88 181.824 23.688C182.016 23.496 182.24 23.4 182.496 23.4H187.44C187.824 23.4 188.128 23.496 188.352 23.688C188.576 23.88 188.768 24.088 188.928 24.312L195.984 34.68L203.088 24.312C203.216 24.088 203.392 23.88 203.616 23.688C203.872 23.496 204.192 23.4 204.576 23.4H209.232C209.52 23.4 209.76 23.496 209.952 23.688C210.144 23.88 210.24 24.12 210.24 24.408C210.24 24.6 210.176 24.792 210.048 24.984L200.016 39.864L210.768 55.416C210.832 55.512 210.88 55.608 210.912 55.704C210.944 55.8 210.96 55.896 210.96 55.992C210.96 56.28 210.848 56.52 210.624 56.712C210.432 56.904 210.208 57 209.952 57H204.864C204.48 57 204.176 56.904 203.952 56.712C203.728 56.52 203.552 56.328 203.424 56.136L195.744 45.288L188.208 56.136C188.08 56.328 187.904 56.52 187.68 56.712C187.456 56.904 187.136 57 186.72 57H181.872ZM216.677 57C216.357 57 216.085 56.888 215.861 56.664C215.637 56.44 215.525 56.168 215.525 55.848V24.552C215.525 24.232 215.637 23.96 215.861 23.736C216.085 23.512 216.357 23.4 216.677 23.4H221.141C221.461 23.4 221.733 23.512 221.957 23.736C222.181 23.96 222.293 24.232 222.293 24.552V51.288H237.509C237.861 51.288 238.149 51.4 238.373 51.624C238.597 51.848 238.709 52.136 238.709 52.488V55.848C238.709 56.168 238.597 56.44 238.373 56.664C238.149 56.888 237.861 57 237.509 57H216.677ZM264.783 57.48C261.807 57.48 259.311 57.048 257.295 56.184C255.311 55.288 253.791 54.136 252.735 52.728C251.711 51.288 251.167 49.784 251.103 48.216C251.103 47.928 251.199 47.688 251.391 47.496C251.583 47.304 251.823 47.208 252.111 47.208H256.383C256.799 47.208 257.103 47.304 257.295 47.496C257.519 47.656 257.711 47.864 257.871 48.12C258.063 48.728 258.431 49.336 258.975 49.944C259.519 50.52 260.255 51 261.183 51.384C262.143 51.768 263.343 51.96 264.783 51.96C267.087 51.96 268.799 51.576 269.919 50.808C271.071 50.04 271.647 49 271.647 47.688C271.647 46.76 271.343 46.024 270.735 45.48C270.127 44.904 269.183 44.392 267.903 43.944C266.655 43.464 264.991 42.968 262.911 42.456C260.511 41.88 258.495 41.192 256.863 40.392C255.263 39.56 254.047 38.52 253.215 37.272C252.415 36.024 252.015 34.44 252.015 32.52C252.015 30.664 252.511 29.016 253.503 27.576C254.527 26.136 255.967 25 257.823 24.168C259.711 23.336 261.951 22.92 264.543 22.92C266.623 22.92 268.463 23.208 270.063 23.784C271.663 24.328 272.991 25.064 274.047 25.992C275.103 26.888 275.903 27.864 276.447 28.92C277.023 29.944 277.327 30.952 277.359 31.944C277.359 32.2 277.263 32.44 277.071 32.664C276.911 32.856 276.671 32.952 276.351 32.952H271.887C271.631 32.952 271.375 32.888 271.119 32.76C270.863 32.632 270.655 32.392 270.495 32.04C270.303 31.048 269.679 30.2 268.623 29.496C267.567 28.792 266.207 28.44 264.543 28.44C262.815 28.44 261.423 28.76 260.367 29.4C259.311 30.04 258.783 31.032 258.783 32.376C258.783 33.272 259.039 34.024 259.551 34.632C260.095 35.208 260.943 35.72 262.095 36.168C263.279 36.616 264.831 37.096 266.751 37.608C269.471 38.216 271.695 38.92 273.423 39.72C275.151 40.52 276.415 41.544 277.215 42.792C278.015 44.008 278.415 45.56 278.415 47.448C278.415 49.56 277.839 51.368 276.687 52.872C275.567 54.344 273.983 55.48 271.935 56.28C269.887 57.08 267.503 57.48 264.783 57.48ZM294.38 57.48C291.82 57.48 289.66 57.032 287.9 56.136C286.172 55.24 284.844 53.976 283.916 52.344C283.02 50.712 282.508 48.808 282.38 46.632C282.348 46.056 282.332 45.352 282.332 44.52C282.332 43.688 282.348 42.984 282.38 42.408C282.508 40.2 283.036 38.296 283.964 36.696C284.924 35.064 286.268 33.8 287.996 32.904C289.756 32.008 291.884 31.56 294.38 31.56C296.876 31.56 298.988 32.008 300.716 32.904C302.476 33.8 303.82 35.064 304.748 36.696C305.708 38.296 306.252 40.2 306.38 42.408C306.412 42.984 306.428 43.688 306.428 44.52C306.428 45.352 306.412 46.056 306.38 46.632C306.252 48.808 305.724 50.712 304.796 52.344C303.9 53.976 302.572 55.24 300.812 56.136C299.084 57.032 296.94 57.48 294.38 57.48ZM294.38 52.728C296.076 52.728 297.388 52.2 298.316 51.144C299.244 50.056 299.756 48.472 299.852 46.392C299.884 45.912 299.9 45.288 299.9 44.52C299.9 43.752 299.884 43.128 299.852 42.648C299.756 40.6 299.244 39.032 298.316 37.944C297.388 36.856 296.076 36.312 294.38 36.312C292.684 36.312 291.372 36.856 290.444 37.944C289.516 39.032 289.004 40.6 288.908 42.648C288.876 43.128 288.86 43.752 288.86 44.52C288.86 45.288 288.876 45.912 288.908 46.392C289.004 48.472 289.516 50.056 290.444 51.144C291.372 52.2 292.684 52.728 294.38 52.728ZM315.305 57C314.985 57 314.713 56.888 314.489 56.664C314.265 56.44 314.153 56.168 314.153 55.848V37.128H310.265C309.945 37.128 309.673 37.016 309.449 36.792C309.225 36.568 309.113 36.296 309.113 35.976V33.192C309.113 32.872 309.225 32.6 309.449 32.376C309.673 32.152 309.945 32.04 310.265 32.04H314.153V30.072C314.153 28.152 314.505 26.568 315.209 25.32C315.913 24.04 316.953 23.08 318.329 22.44C319.705 21.8 321.449 21.48 323.561 21.48H326.825C327.177 21.48 327.449 21.592 327.641 21.816C327.865 22.04 327.977 22.312 327.977 22.632V25.416C327.977 25.736 327.865 26.008 327.641 26.232C327.449 26.456 327.177 26.568 326.825 26.568H323.753C322.473 26.568 321.593 26.888 321.113 27.528C320.633 28.168 320.393 29.096 320.393 30.312V32.04H326.345C326.697 32.04 326.969 32.152 327.161 32.376C327.385 32.6 327.497 32.872 327.497 33.192V35.976C327.497 36.296 327.385 36.568 327.161 36.792C326.969 37.016 326.697 37.128 326.345 37.128H320.393V55.848C320.393 56.168 320.281 56.44 320.057 56.664C319.833 56.888 319.561 57 319.241 57H315.305ZM342.62 57C340.7 57 339.084 56.664 337.772 55.992C336.46 55.32 335.484 54.328 334.844 53.016C334.204 51.672 333.884 50.008 333.884 48.024V37.128H330.092C329.772 37.128 329.5 37.016 329.276 36.792C329.052 36.568 328.94 36.296 328.94 35.976V33.192C328.94 32.872 329.052 32.6 329.276 32.376C329.5 32.152 329.772 32.04 330.092 32.04H333.884V24.072C333.884 23.752 333.98 23.48 334.172 23.256C334.396 23.032 334.684 22.92 335.036 22.92H338.924C339.244 22.92 339.516 23.032 339.74 23.256C339.964 23.48 340.076 23.752 340.076 24.072V32.04H346.076C346.396 32.04 346.668 32.152 346.892 32.376C347.116 32.6 347.228 32.872 347.228 33.192V35.976C347.228 36.296 347.116 36.568 346.892 36.792C346.668 37.016 346.396 37.128 346.076 37.128H340.076V47.544C340.076 48.856 340.3 49.88 340.748 50.616C341.228 51.352 342.044 51.72 343.196 51.72H346.508C346.828 51.72 347.1 51.832 347.324 52.056C347.548 52.28 347.66 52.552 347.66 52.872V55.848C347.66 56.168 347.548 56.44 347.324 56.664C347.1 56.888 346.828 57 346.508 57H342.62ZM358.734 57C358.286 57 357.95 56.888 357.726 56.664C357.502 56.44 357.31 56.152 357.15 55.8L350.286 33.528C350.254 33.368 350.238 33.224 350.238 33.096C350.238 32.808 350.334 32.568 350.526 32.376C350.75 32.152 350.99 32.04 351.246 32.04H354.798C355.182 32.04 355.486 32.152 355.71 32.376C355.934 32.568 356.062 32.76 356.094 32.952L360.798 48.84L365.79 33.096C365.854 32.872 365.998 32.648 366.222 32.424C366.446 32.168 366.782 32.04 367.23 32.04H369.63C370.078 32.04 370.414 32.168 370.638 32.424C370.862 32.648 371.006 32.872 371.07 33.096L376.062 48.84L380.766 32.952C380.798 32.76 380.91 32.568 381.102 32.376C381.326 32.152 381.63 32.04 382.014 32.04H385.566C385.854 32.04 386.094 32.152 386.286 32.376C386.51 32.568 386.622 32.808 386.622 33.096C386.622 33.224 386.59 33.368 386.526 33.528L379.662 55.8C379.566 56.152 379.39 56.44 379.134 56.664C378.91 56.888 378.574 57 378.126 57H375.006C374.558 57 374.206 56.888 373.95 56.664C373.694 56.44 373.518 56.152 373.422 55.8L368.43 40.632L363.438 55.8C363.31 56.152 363.118 56.44 362.862 56.664C362.638 56.888 362.286 57 361.806 57H358.734ZM397.791 57.48C396.127 57.48 394.623 57.16 393.279 56.52C391.935 55.848 390.863 54.968 390.063 53.88C389.295 52.76 388.911 51.512 388.911 50.136C388.911 47.896 389.807 46.12 391.599 44.808C393.423 43.464 395.823 42.568 398.799 42.12L405.375 41.16V40.152C405.375 38.808 405.039 37.768 404.367 37.032C403.695 36.296 402.543 35.928 400.911 35.928C399.759 35.928 398.815 36.168 398.079 36.648C397.375 37.096 396.847 37.704 396.495 38.472C396.239 38.888 395.871 39.096 395.391 39.096H391.599C391.247 39.096 390.975 39 390.783 38.808C390.623 38.616 390.543 38.36 390.543 38.04C390.575 37.528 390.783 36.904 391.167 36.168C391.551 35.432 392.159 34.728 392.991 34.056C393.823 33.352 394.895 32.76 396.207 32.28C397.519 31.8 399.103 31.56 400.959 31.56C402.975 31.56 404.671 31.816 406.047 32.328C407.455 32.808 408.575 33.464 409.407 34.296C410.239 35.128 410.847 36.104 411.231 37.224C411.615 38.344 411.807 39.528 411.807 40.776V55.848C411.807 56.168 411.695 56.44 411.471 56.664C411.247 56.888 410.975 57 410.655 57H406.767C406.415 57 406.127 56.888 405.903 56.664C405.711 56.44 405.615 56.168 405.615 55.848V53.976C405.199 54.584 404.639 55.16 403.935 55.704C403.231 56.216 402.367 56.648 401.343 57C400.351 57.32 399.167 57.48 397.791 57.48ZM399.423 52.92C400.543 52.92 401.551 52.68 402.447 52.2C403.375 51.72 404.095 50.984 404.607 49.992C405.151 48.968 405.423 47.688 405.423 46.152V45.144L400.623 45.912C398.735 46.2 397.327 46.664 396.399 47.304C395.471 47.944 395.007 48.728 395.007 49.656C395.007 50.36 395.215 50.968 395.631 51.48C396.079 51.96 396.639 52.328 397.311 52.584C397.983 52.808 398.687 52.92 399.423 52.92ZM419.117 57C418.797 57 418.525 56.888 418.301 56.664C418.077 56.44 417.965 56.168 417.965 55.848V33.24C417.965 32.888 418.077 32.6 418.301 32.376C418.525 32.152 418.797 32.04 419.117 32.04H423.005C423.325 32.04 423.597 32.152 423.821 32.376C424.077 32.6 424.205 32.888 424.205 33.24V35.208C424.941 34.184 425.885 33.4 427.037 32.856C428.221 32.312 429.581 32.04 431.117 32.04H433.085C433.437 32.04 433.709 32.152 433.901 32.376C434.125 32.6 434.237 32.872 434.237 33.192V36.648C434.237 36.968 434.125 37.24 433.901 37.464C433.709 37.688 433.437 37.8 433.085 37.8H429.341C427.805 37.8 426.605 38.232 425.741 39.096C424.909 39.96 424.493 41.144 424.493 42.648V55.848C424.493 56.168 424.381 56.44 424.157 56.664C423.933 56.888 423.645 57 423.293 57H419.117ZM448.404 57.48C444.852 57.48 442.036 56.456 439.956 54.408C437.876 52.36 436.756 49.448 436.596 45.672C436.564 45.352 436.548 44.952 436.548 44.472C436.548 43.96 436.564 43.56 436.596 43.272C436.724 40.872 437.268 38.792 438.228 37.032C439.22 35.272 440.58 33.928 442.308 33C444.036 32.04 446.068 31.56 448.404 31.56C450.996 31.56 453.172 32.104 454.932 33.192C456.692 34.248 458.02 35.736 458.916 37.656C459.812 39.544 460.26 41.736 460.26 44.232V45.24C460.26 45.56 460.148 45.832 459.924 46.056C459.7 46.28 459.412 46.392 459.06 46.392H443.124C443.124 46.392 443.124 46.44 443.124 46.536C443.124 46.632 443.124 46.712 443.124 46.776C443.156 47.896 443.364 48.936 443.748 49.896C444.164 50.824 444.756 51.576 445.524 52.152C446.324 52.728 447.268 53.016 448.356 53.016C449.252 53.016 450.004 52.888 450.612 52.632C451.22 52.344 451.716 52.024 452.1 51.672C452.484 51.32 452.756 51.032 452.916 50.808C453.204 50.424 453.428 50.2 453.588 50.136C453.78 50.04 454.052 49.992 454.404 49.992H458.532C458.852 49.992 459.108 50.088 459.3 50.28C459.524 50.472 459.62 50.712 459.588 51C459.556 51.512 459.284 52.136 458.772 52.872C458.292 53.608 457.588 54.328 456.66 55.032C455.732 55.736 454.564 56.328 453.156 56.808C451.78 57.256 450.196 57.48 448.404 57.48ZM443.124 42.36H453.732V42.216C453.732 40.968 453.524 39.88 453.108 38.952C452.692 38.024 452.084 37.288 451.284 36.744C450.484 36.2 449.524 35.928 448.404 35.928C447.284 35.928 446.324 36.2 445.524 36.744C444.724 37.288 444.116 38.024 443.7 38.952C443.316 39.88 443.124 40.968 443.124 42.216V42.36Z" fill="white"/>
<path d="M184.32 93C184.187 93 184.08 92.96 184 92.88C183.92 92.8 183.88 92.6933 183.88 92.56V79.46C183.88 79.3133 183.92 79.2 184 79.12C184.08 79.04 184.187 79 184.32 79H189.18C190.113 79 190.92 79.16 191.6 79.48C192.293 79.7867 192.827 80.2467 193.2 80.86C193.587 81.4733 193.78 82.2333 193.78 83.14C193.78 84.0467 193.587 84.8067 193.2 85.42C192.827 86.0333 192.293 86.5 191.6 86.82C190.92 87.1267 190.113 87.28 189.18 87.28H185.14V92.56C185.14 92.6933 185.1 92.8 185.02 92.88C184.94 92.96 184.827 93 184.68 93H184.32ZM185.14 86.08H189.08C190.24 86.08 191.1 85.8267 191.66 85.32C192.233 84.8133 192.52 84.0867 192.52 83.14C192.52 82.1933 192.233 81.4667 191.66 80.96C191.1 80.4533 190.24 80.2 189.08 80.2H185.14V86.08ZM201.179 93.2C200.072 93.2 199.132 93.0067 198.359 92.62C197.585 92.22 196.992 91.6133 196.579 90.8C196.165 89.9733 195.939 88.9333 195.899 87.68C195.885 87.08 195.879 86.52 195.879 86C195.879 85.48 195.885 84.92 195.899 84.32C195.939 83.08 196.179 82.0533 196.619 81.24C197.059 80.4133 197.665 79.8 198.439 79.4C199.225 79 200.139 78.8 201.179 78.8C202.219 78.8 203.125 79 203.899 79.4C204.685 79.8 205.299 80.4133 205.739 81.24C206.192 82.0533 206.432 83.08 206.459 84.32C206.485 84.92 206.499 85.48 206.499 86C206.499 86.52 206.485 87.08 206.459 87.68C206.432 88.9333 206.205 89.9733 205.779 90.8C205.365 91.6133 204.772 92.22 203.999 92.62C203.225 93.0067 202.285 93.2 201.179 93.2ZM201.179 92C202.325 92 203.265 91.6533 203.999 90.96C204.745 90.2667 205.145 89.14 205.199 87.58C205.225 86.98 205.239 86.4533 205.239 86C205.239 85.5467 205.225 85.02 205.199 84.42C205.172 83.38 204.979 82.5333 204.619 81.88C204.272 81.2267 203.799 80.7533 203.199 80.46C202.612 80.1533 201.939 80 201.179 80C200.432 80 199.759 80.1533 199.159 80.46C198.572 80.7533 198.099 81.2267 197.739 81.88C197.392 82.5333 197.199 83.38 197.159 84.42C197.145 85.02 197.139 85.5467 197.139 86C197.139 86.4533 197.145 86.98 197.159 87.58C197.212 89.14 197.612 90.2667 198.359 90.96C199.105 91.6533 200.045 92 201.179 92ZM211.925 93C211.765 93 211.638 92.9667 211.545 92.9C211.465 92.82 211.405 92.6933 211.365 92.52L208.625 79.64C208.612 79.5867 208.598 79.54 208.585 79.5C208.585 79.4467 208.585 79.4133 208.585 79.4C208.585 79.2933 208.625 79.2 208.705 79.12C208.785 79.04 208.878 79 208.985 79H209.405C209.658 79 209.805 79.1 209.845 79.3L212.185 90.7L214.665 82.56C214.705 82.44 214.772 82.3333 214.865 82.24C214.972 82.1467 215.112 82.1 215.285 82.1H215.725C215.912 82.1 216.052 82.1467 216.145 82.24C216.238 82.3333 216.305 82.44 216.345 82.56L218.825 90.7L221.165 79.3C221.205 79.1 221.352 79 221.605 79H222.025C222.132 79 222.225 79.04 222.305 79.12C222.385 79.2 222.425 79.2933 222.425 79.4C222.425 79.4133 222.418 79.4467 222.405 79.5C222.405 79.54 222.398 79.5867 222.385 79.64L219.645 92.52C219.605 92.6933 219.538 92.82 219.445 92.9C219.365 92.9667 219.245 93 219.085 93H218.785C218.625 93 218.492 92.96 218.385 92.88C218.292 92.8 218.218 92.68 218.165 92.52L215.505 84.08L212.845 92.52C212.792 92.68 212.712 92.8 212.605 92.88C212.512 92.96 212.385 93 212.225 93H211.925ZM225.707 93C225.573 93 225.467 92.96 225.387 92.88C225.307 92.8 225.267 92.6933 225.267 92.56V79.46C225.267 79.3133 225.307 79.2 225.387 79.12C225.467 79.04 225.573 79 225.707 79H233.507C233.653 79 233.767 79.04 233.847 79.12C233.927 79.2 233.967 79.3133 233.967 79.46V79.76C233.967 79.8933 233.927 80 233.847 80.08C233.767 80.16 233.653 80.2 233.507 80.2H226.527V85.3H233.067C233.213 85.3 233.327 85.34 233.407 85.42C233.487 85.5 233.527 85.6133 233.527 85.76V86.06C233.527 86.1933 233.487 86.3 233.407 86.38C233.327 86.46 233.213 86.5 233.067 86.5H226.527V91.8H233.667C233.813 91.8 233.927 91.84 234.007 91.92C234.087 92 234.127 92.1133 234.127 92.26V92.56C234.127 92.6933 234.087 92.8 234.007 92.88C233.927 92.96 233.813 93 233.667 93H225.707ZM237.543 93C237.409 93 237.303 92.96 237.223 92.88C237.143 92.8 237.103 92.6933 237.103 92.56V79.46C237.103 79.3133 237.143 79.2 237.223 79.12C237.303 79.04 237.409 79 237.543 79H242.203C243.603 79 244.716 79.3333 245.543 80C246.383 80.6667 246.803 81.68 246.803 83.04C246.803 84.1067 246.536 84.96 246.003 85.6C245.469 86.24 244.729 86.6733 243.783 86.9L247.003 92.38C247.043 92.46 247.063 92.5333 247.063 92.6C247.063 92.7067 247.023 92.8 246.943 92.88C246.863 92.96 246.769 93 246.663 93H246.423C246.209 93 246.049 92.9467 245.943 92.84C245.836 92.72 245.743 92.5933 245.663 92.46L242.483 87.08H238.363V92.56C238.363 92.6933 238.323 92.8 238.243 92.88C238.163 92.96 238.049 93 237.903 93H237.543ZM238.363 85.88H242.103C243.263 85.88 244.123 85.6467 244.683 85.18C245.256 84.7 245.543 83.9867 245.543 83.04C245.543 82.0933 245.256 81.3867 244.683 80.92C244.123 80.44 243.263 80.2 242.103 80.2H238.363V85.88ZM250.336 93C250.202 93 250.096 92.96 250.016 92.88C249.936 92.8 249.896 92.6933 249.896 92.56V79.46C249.896 79.3133 249.936 79.2 250.016 79.12C250.096 79.04 250.202 79 250.336 79H258.136C258.282 79 258.396 79.04 258.476 79.12C258.556 79.2 258.596 79.3133 258.596 79.46V79.76C258.596 79.8933 258.556 80 258.476 80.08C258.396 80.16 258.282 80.2 258.136 80.2H251.156V85.3H257.696C257.842 85.3 257.956 85.34 258.036 85.42C258.116 85.5 258.156 85.6133 258.156 85.76V86.06C258.156 86.1933 258.116 86.3 258.036 86.38C257.956 86.46 257.842 86.5 257.696 86.5H251.156V91.8H258.296C258.442 91.8 258.556 91.84 258.636 91.92C258.716 92 258.756 92.1133 258.756 92.26V92.56C258.756 92.6933 258.716 92.8 258.636 92.88C258.556 92.96 258.442 93 258.296 93H250.336ZM262.172 93C262.038 93 261.932 92.96 261.852 92.88C261.772 92.8 261.732 92.6933 261.732 92.56V79.46C261.732 79.3133 261.772 79.2 261.852 79.12C261.932 79.04 262.038 79 262.172 79H266.432C267.845 79 268.952 79.2067 269.752 79.62C270.552 80.0333 271.118 80.6467 271.452 81.46C271.798 82.26 271.978 83.24 271.992 84.4C272.005 85 272.012 85.5333 272.012 86C272.012 86.4533 272.005 86.98 271.992 87.58C271.965 88.8067 271.785 89.82 271.452 90.62C271.118 91.42 270.558 92.02 269.772 92.42C268.985 92.8067 267.905 93 266.532 93H262.172ZM262.992 91.8H266.432C267.498 91.8 268.338 91.66 268.952 91.38C269.578 91.0867 270.025 90.6267 270.292 90C270.572 89.36 270.718 88.52 270.732 87.48C270.745 87.08 270.752 86.7333 270.752 86.44C270.752 86.1333 270.752 85.8333 270.752 85.54C270.752 85.2467 270.745 84.9 270.732 84.5C270.705 83.0333 270.365 81.9533 269.712 81.26C269.058 80.5533 267.932 80.2 266.332 80.2H262.992V91.8Z" fill="white"/>
</svg>
