<svg width="50" height="50" viewBox="0 0 50 50" fill="none" xmlns="http://www.w3.org/2000/svg">
<g clip-path="url(#clip0_43_1827)">
<path d="M12.1071 37.8928H6.92857C5.63399 37.7851 4.42721 37.1946 3.54757 36.2387C2.66793 35.2828 2.17969 34.0312 2.17969 32.7321C2.17969 31.4331 2.66793 30.1815 3.54757 29.2255C4.42721 28.2696 5.63399 27.6792 6.92857 27.5714H15.1429L20.4286 22.2857L5.92857 13.3571C4.81228 12.6671 3.99963 11.5789 3.65488 10.3126C3.31014 9.04635 3.45902 7.69641 4.07143 6.5357C4.34177 5.87143 4.74535 5.26958 5.25727 4.7673C5.76918 4.26502 6.37858 3.87295 7.04787 3.61527C7.71716 3.35759 8.43214 3.23978 9.14872 3.26909C9.8653 3.2984 10.5683 3.47422 11.2143 3.7857L30.1429 12.5357L39.2857 3.2857C40.2708 2.30061 41.6069 1.74719 43 1.74719C44.3931 1.74719 45.7292 2.30061 46.7143 3.2857C47.6994 4.27079 48.2528 5.60686 48.2528 6.99999C48.2528 8.39311 47.6994 9.72918 46.7143 10.7143L37.4643 19.8571L46.2143 38.9643C46.5021 39.6006 46.6592 40.2882 46.6762 40.9863C46.6933 41.6845 46.5699 42.3789 46.3134 43.0285C46.0569 43.678 45.6725 44.2695 45.1831 44.7676C44.6937 45.2658 44.1092 45.6606 43.4643 45.9286C42.3036 46.541 40.9536 46.6898 39.6874 46.3451C38.4211 46.0004 37.3329 45.1877 36.6429 44.0714L27.7143 29.5714L22.4286 34.8571V43.0714C22.3208 44.366 21.7304 45.5728 20.7745 46.4524C19.8185 47.3321 18.5669 47.8203 17.2679 47.8203C15.9688 47.8203 14.7172 47.3321 13.7613 46.4524C12.8053 45.5728 12.2149 44.366 12.1071 43.0714V37.8928Z" stroke="white" stroke-width="3.57143" stroke-linecap="round" stroke-linejoin="round"/>
</g>
<defs>
<clipPath id="clip0_43_1827">
<rect width="50" height="50" fill="white"/>
</clipPath>
</defs>
</svg>
