<svg width="50" height="50" viewBox="0 0 50 50" fill="none" xmlns="http://www.w3.org/2000/svg">
<path d="M48.2142 17.8571C48.2142 16.9099 47.8379 16.0015 47.1682 15.3318C46.4984 14.662 45.59 14.2857 44.6428 14.2857H37.4999L32.1428 7.14285H17.8571L12.4999 14.2857H5.35707C4.40987 14.2857 3.50146 14.662 2.83169 15.3318C2.16192 16.0015 1.78564 16.9099 1.78564 17.8571V39.2857C1.78564 40.2329 2.16192 41.1413 2.83169 41.8111C3.50146 42.4809 4.40987 42.8571 5.35707 42.8571H44.6428C45.59 42.8571 46.4984 42.4809 47.1682 41.8111C47.8379 41.1413 48.2142 40.2329 48.2142 39.2857V17.8571Z" stroke="white" stroke-width="3.57143" stroke-linecap="round" stroke-linejoin="round"/>
<path d="M24.9998 34.8214C29.4378 34.8214 33.0355 31.2237 33.0355 26.7857C33.0355 22.3477 29.4378 18.75 24.9998 18.75C20.5618 18.75 16.9641 22.3477 16.9641 26.7857C16.9641 31.2237 20.5618 34.8214 24.9998 34.8214Z" stroke="white" stroke-width="3.57143" stroke-linecap="round" stroke-linejoin="round"/>
</svg>
