<svg width="50" height="50" viewBox="0 0 50 50" fill="none" xmlns="http://www.w3.org/2000/svg">
<g clip-path="url(#clip0_43_1229)">
<path d="M46.4286 24.3214L25.1786 45.75C24.3541 46.5901 23.3704 47.2575 22.285 47.713C21.1996 48.1686 20.0343 48.4032 18.8571 48.4032C17.68 48.4032 16.5147 48.1686 15.4293 47.713C14.3439 47.2575 13.3602 46.5901 12.5357 45.75L6.17857 39.2857C4.51438 37.5954 3.58161 35.3185 3.58161 32.9464C3.58161 30.5744 4.51438 28.2974 6.17857 26.6071L28.8214 3.89284C29.4854 3.22336 30.2755 2.69197 31.1459 2.32933C32.0163 1.9667 32.9499 1.78 33.8929 1.78C34.8358 1.78 35.7694 1.9667 36.6398 2.32933C37.5103 2.69197 38.3003 3.22336 38.9643 3.89284L41.5 6.42856C42.1695 7.09258 42.7009 7.88259 43.0635 8.75301C43.4261 9.62343 43.6128 10.557 43.6128 11.5C43.6128 12.4429 43.4261 13.3765 43.0635 14.247C42.7009 15.1174 42.1695 15.9074 41.5 16.5714L21.4286 36.7143C21.0966 37.049 20.7016 37.3147 20.2663 37.496C19.8311 37.6773 19.3643 37.7707 18.8929 37.7707C18.4214 37.7707 17.9546 37.6773 17.5194 37.496C17.0842 37.3147 16.6892 37.049 16.3571 36.7143L15.1071 35.4286C14.7724 35.0965 14.5067 34.7015 14.3254 34.2663C14.1441 33.8311 14.0507 33.3643 14.0507 32.8928C14.0507 32.4214 14.1441 31.9546 14.3254 31.5194C14.5067 31.0841 14.7724 30.6891 15.1071 30.3571L28.5714 17" stroke="white" stroke-width="3.57143" stroke-linecap="round" stroke-linejoin="round"/>
</g>
<defs>
<clipPath id="clip0_43_1229">
<rect width="50" height="50" fill="white"/>
</clipPath>
</defs>
</svg>
