<svg width="50" height="50" viewBox="0 0 50 50" fill="none" xmlns="http://www.w3.org/2000/svg">
<path d="M44.6429 35.7143C44.6429 36.6615 44.2666 37.5699 43.5969 38.2397C42.9271 38.9094 42.0187 39.2857 41.0715 39.2857H17.8572C16.91 39.2857 16.0016 38.9094 15.3318 38.2397C14.662 37.5699 14.2858 36.6615 14.2858 35.7143V5.35713C14.2858 4.40993 14.662 3.50153 15.3318 2.83175C16.0016 2.16198 16.91 1.78571 17.8572 1.78571H33.9286L44.6429 12.5V35.7143Z" stroke="white" stroke-width="3.57143" stroke-linecap="round" stroke-linejoin="round"/>
<path d="M33.9286 48.2143H8.92861C7.9814 48.2143 7.073 47.838 6.40322 47.1682C5.73345 46.4985 5.35718 45.5901 5.35718 44.6429V12.5" stroke="white" stroke-width="3.57143" stroke-linecap="round" stroke-linejoin="round"/>
</svg>
