<svg width="50" height="50" viewBox="0 0 50 50" fill="none" xmlns="http://www.w3.org/2000/svg">
<path d="M33.9285 5.35715H39.2857C40.2329 5.35715 41.1413 5.73342 41.8111 6.40319C42.4808 7.07297 42.8571 7.98137 42.8571 8.92858V44.6429C42.8571 45.5901 42.4808 46.4985 41.8111 47.1682C41.1413 47.838 40.2329 48.2143 39.2857 48.2143H10.7143C9.76705 48.2143 8.85864 47.838 8.18887 47.1682C7.5191 46.4985 7.14282 45.5901 7.14282 44.6429V8.92858C7.14282 7.98137 7.5191 7.07297 8.18887 6.40319C8.85864 5.73342 9.76705 5.35715 10.7143 5.35715H16.0714" stroke="white" stroke-width="3.57143" stroke-linecap="round" stroke-linejoin="round"/>
<path d="M30.3571 1.78571H19.6428C17.6704 1.78571 16.0714 3.38469 16.0714 5.35713V7.14285C16.0714 9.11529 17.6704 10.7143 19.6428 10.7143H30.3571C32.3296 10.7143 33.9286 9.11529 33.9286 7.14285V5.35713C33.9286 3.38469 32.3296 1.78571 30.3571 1.78571Z" stroke="white" stroke-width="3.57143" stroke-linecap="round" stroke-linejoin="round"/>
<path d="M16.0714 19.6429H33.9286" stroke="white" stroke-width="3.57143" stroke-linecap="round" stroke-linejoin="round"/>
<path d="M16.0714 28.5714H33.9286" stroke="white" stroke-width="3.57143" stroke-linecap="round" stroke-linejoin="round"/>
<path d="M16.0714 37.5H33.9286" stroke="white" stroke-width="3.57143" stroke-linecap="round" stroke-linejoin="round"/>
</svg>
