<svg width="50" height="50" viewBox="0 0 50 50" fill="none" xmlns="http://www.w3.org/2000/svg">
<g clip-path="url(#clip0_43_1465)">
<path d="M12.0358 29.1072L21.1072 43.6072C21.4588 44.1803 21.9528 44.6526 22.5411 44.978C23.1294 45.3035 23.792 45.471 24.4643 45.4643C24.9938 45.4834 25.5218 45.3962 26.017 45.2078C26.5122 45.0194 26.9646 44.7336 27.3475 44.3673C27.7304 44.0011 28.036 43.5618 28.2462 43.0755C28.4565 42.5891 28.5671 42.0656 28.5715 41.5357V31.1429H44.2501C44.8294 31.1241 45.3982 30.9829 45.919 30.7285C46.4399 30.4742 46.901 30.1125 47.2721 29.6672C47.6432 29.2219 47.9158 28.7031 48.0721 28.1449C48.2283 27.5867 48.2646 27.0018 48.1786 26.4286L45.3215 8.00001C45.1996 7.01515 44.7222 6.1087 43.9791 5.45104C43.2359 4.79337 42.2781 4.42978 41.2858 4.42858H17.8572C16.7419 4.42421 15.6411 4.68107 14.6429 5.17858L12.0715 6.4643" stroke="white" stroke-width="3.57143" stroke-linecap="round" stroke-linejoin="round"/>
<path d="M12.0358 29.1072V6.57144" stroke="white" stroke-width="3.57143" stroke-linecap="round" stroke-linejoin="round"/>
<path d="M3.57148 6.57144H12.0358V29.1072H3.57148C3.09788 29.1072 2.64368 28.919 2.30879 28.5841C1.9739 28.2492 1.78577 27.795 1.78577 27.3214V8.35716C1.78577 7.88355 1.9739 7.42935 2.30879 7.09447C2.64368 6.75958 3.09788 6.57144 3.57148 6.57144Z" stroke="white" stroke-width="3.57143" stroke-linecap="round" stroke-linejoin="round"/>
</g>
<defs>
<clipPath id="clip0_43_1465">
<rect width="50" height="50" fill="white"/>
</clipPath>
</defs>
</svg>
