<svg width="50" height="50" viewBox="0 0 50 50" fill="none" xmlns="http://www.w3.org/2000/svg">
<g clip-path="url(#clip0_43_1782)">
<path d="M37.5 39.2857H44.6429C45.5901 39.2857 46.4985 38.9094 47.1682 38.2396C47.838 37.5699 48.2143 36.6615 48.2143 35.7143V19.6428C48.2143 18.6956 47.838 17.7872 47.1682 17.1175C46.4985 16.4477 45.5901 16.0714 44.6429 16.0714H5.35714C4.40994 16.0714 3.50153 16.4477 2.83176 17.1175C2.16199 17.7872 1.78571 18.6956 1.78571 19.6428V35.7143C1.78571 36.6615 2.16199 37.5699 2.83176 38.2396C3.50153 38.9094 4.40994 39.2857 5.35714 39.2857H12.5" stroke="white" stroke-width="3.57143" stroke-linecap="round" stroke-linejoin="round"/>
<path d="M12.5 33.9286V46.4286C12.5 46.9022 12.6881 47.3564 13.023 47.6913C13.3579 48.0261 13.8121 48.2143 14.2857 48.2143H35.7143C36.1879 48.2143 36.6421 48.0261 36.977 47.6913C37.3119 47.3564 37.5 46.9022 37.5 46.4286V33.9286H12.5Z" stroke="white" stroke-width="3.57143" stroke-linecap="round" stroke-linejoin="round"/>
<path d="M37.5 16.0714V3.57142C37.5 3.09782 37.3119 2.64362 36.977 2.30873C36.6421 1.97384 36.1879 1.78571 35.7143 1.78571H14.2857C13.8121 1.78571 13.3579 1.97384 13.023 2.30873C12.6881 2.64362 12.5 3.09782 12.5 3.57142V16.0714" stroke="white" stroke-width="3.57143" stroke-linecap="round" stroke-linejoin="round"/>
<path d="M39.2857 25H35.7143" stroke="white" stroke-width="3.57143" stroke-linecap="round" stroke-linejoin="round"/>
</g>
<defs>
<clipPath id="clip0_43_1782">
<rect width="50" height="50" fill="white"/>
</clipPath>
</defs>
</svg>
