<svg width="50" height="50" viewBox="0 0 50 50" fill="none" xmlns="http://www.w3.org/2000/svg">
<path d="M3.57141 12.5H46.4286" stroke="white" stroke-width="3.57143" stroke-linecap="round" stroke-linejoin="round"/>
<path d="M8.92859 12.5H41.0714V44.6429C41.0714 45.5901 40.6952 46.4985 40.0254 47.1682C39.3556 47.838 38.4472 48.2143 37.5 48.2143H12.5C11.5528 48.2143 10.6444 47.838 9.97464 47.1682C9.30486 46.4985 8.92859 45.5901 8.92859 44.6429V12.5Z" stroke="white" stroke-width="3.57143" stroke-linecap="round" stroke-linejoin="round"/>
<path d="M16.0714 12.5V10.7143C16.0714 8.34627 17.0121 6.07526 18.6865 4.40082C20.361 2.72639 22.632 1.78571 25 1.78571C27.368 1.78571 29.639 2.72639 31.3134 4.40082C32.9879 6.07526 33.9286 8.34627 33.9286 10.7143V12.5" stroke="white" stroke-width="3.57143" stroke-linecap="round" stroke-linejoin="round"/>
<path d="M19.6428 19.6429V39.2857" stroke="white" stroke-width="3.57143" stroke-linecap="round" stroke-linejoin="round"/>
<path d="M30.3572 19.6429V39.2857" stroke="white" stroke-width="3.57143" stroke-linecap="round" stroke-linejoin="round"/>
</svg>
