<svg width="50" height="50" viewBox="0 0 50 50" fill="none" xmlns="http://www.w3.org/2000/svg">
<g clip-path="url(#clip0_43_1366)">
<path fill-rule="evenodd" clip-rule="evenodd" d="M9.61903 21.6831C10.5265 22.0694 10.949 23.1181 10.5628 24.0255L4.24353 38.873C4.24346 38.8732 4.24361 38.8728 4.24353 38.873C4.15149 39.0898 4.10302 39.3232 4.10136 39.5588C4.0997 39.7945 4.14473 40.0282 4.23385 40.2465C4.32298 40.4647 4.45443 40.6631 4.62063 40.8303C4.78683 40.9975 4.98448 41.1301 5.20219 41.2205L5.20895 41.2233L15.0877 45.3732C15.3046 45.4654 15.5377 45.5137 15.7734 45.5154C16.0091 45.517 16.2429 45.472 16.4611 45.3829C16.6793 45.2937 16.8778 45.1623 17.045 44.9961C17.2121 44.8299 17.3448 44.6322 17.4352 44.4145L17.4478 44.3849L22.6917 32.3725C23.0863 31.4686 24.1389 31.0558 25.0427 31.4504C25.9466 31.8449 26.3594 32.8975 25.9649 33.8014L20.7267 45.8005C20.4557 46.4472 20.0603 47.0345 19.5629 47.5289C19.0613 48.0275 18.466 48.4218 17.8113 48.6892C17.1566 48.9566 16.4554 49.0917 15.7482 49.0867C15.0424 49.0817 14.3445 48.9373 13.6947 48.6618C13.6935 48.6612 13.6922 48.6607 13.691 48.6602L3.83251 44.5189C3.83119 44.5183 3.82986 44.5178 3.82853 44.5172C3.17698 44.246 2.58541 43.8488 2.08782 43.3482C1.58922 42.8467 1.19487 42.2514 0.927499 41.5967C0.66013 40.942 0.52504 40.2408 0.530022 39.5336C0.535005 38.8264 0.67996 38.1272 0.956528 37.4763L7.27662 22.6269C7.66284 21.7195 8.71157 21.2969 9.61903 21.6831Z" fill="white"/>
<path d="M28.684 25.5L40.4659 28.5415C40.9208 28.6654 41.3958 28.6979 41.8633 28.6374C42.3309 28.5768 42.7818 28.4242 43.1901 28.1885C43.5984 27.9528 43.956 27.6385 44.2423 27.2639C44.5285 26.8892 44.7378 26.4617 44.8579 26.0057L47.6828 15.7558C47.8067 15.3009 47.8393 14.8259 47.7787 14.3584C47.7181 13.8908 47.5656 13.4399 47.3299 13.0316C47.0941 12.6233 46.7799 12.2657 46.4052 11.9794C46.0306 11.6932 45.603 11.4839 45.1471 11.3638L29.5402 7.26035" stroke="white" stroke-width="3.57143" stroke-linecap="round" stroke-linejoin="round"/>
<path d="M25.2142 2L23.4285 9.14286" stroke="white" stroke-width="3.57143" stroke-linecap="round" stroke-linejoin="round"/>
<path d="M2 12.7143L9.14286 16.2857" stroke="white" stroke-width="3.57143" stroke-linecap="round" stroke-linejoin="round"/>
<path d="M10.9285 2L14.4999 9.14286" stroke="white" stroke-width="3.57143" stroke-linecap="round" stroke-linejoin="round"/>
</g>
<defs>
<clipPath id="clip0_43_1366">
<rect width="50" height="50" fill="white"/>
</clipPath>
</defs>
</svg>
