<svg width="50" height="50" viewBox="0 0 50 50" fill="none" xmlns="http://www.w3.org/2000/svg">
<path d="M45.7857 13.3928L35.7143 17.8571V12.5C35.7143 11.5528 35.338 10.6444 34.6682 9.97461C33.9985 9.30483 33.0901 8.92856 32.1429 8.92856H5.35714C4.40994 8.92856 3.50153 9.30483 2.83176 9.97461C2.16199 10.6444 1.78571 11.5528 1.78571 12.5V37.5C1.78571 38.4472 2.16199 39.3556 2.83176 40.0254C3.50153 40.6951 4.40994 41.0714 5.35714 41.0714H32.1429C33.0901 41.0714 33.9985 40.6951 34.6682 40.0254C35.338 39.3556 35.7143 38.4472 35.7143 37.5V32.1428L45.7857 36.6071C46.0572 36.7119 46.3503 36.7487 46.6393 36.7144C46.9283 36.6801 47.2045 36.5756 47.4439 36.4101C47.6834 36.2447 47.8787 36.0232 48.013 35.7649C48.1472 35.5067 48.2163 35.2196 48.2143 34.9286V15.0714C48.2163 14.7804 48.1472 14.4933 48.013 14.235C47.8787 13.9768 47.6834 13.7553 47.4439 13.5898C47.2045 13.4244 46.9283 13.3199 46.6393 13.2856C46.3503 13.2512 46.0572 13.2881 45.7857 13.3928Z" stroke="white" stroke-width="3.57143" stroke-linecap="round" stroke-linejoin="round"/>
</svg>
