<svg width="50" height="50" viewBox="0 0 50 50" fill="none" xmlns="http://www.w3.org/2000/svg">
<g clip-path="url(#clip0_43_1349)">
<path d="M10.7143 25V15.6071C10.7422 13.7608 11.1341 11.9382 11.8676 10.2436C12.6012 8.549 13.6618 7.01581 14.9889 5.73186C16.316 4.44791 17.8834 3.43844 19.6013 2.76129C21.3192 2.08414 23.1538 1.75262 25 1.78572C26.8462 1.75262 28.6808 2.08414 30.3987 2.76129C32.1166 3.43844 33.684 4.44791 35.0111 5.73186C36.3382 7.01581 37.3988 8.549 38.1324 10.2436C38.8659 11.9382 39.2578 13.7608 39.2857 15.6071V25" stroke="white" stroke-width="3.57143" stroke-linecap="round" stroke-linejoin="round"/>
<path d="M5.35714 19.6429H8.92857C9.40217 19.6429 9.85637 19.831 10.1913 20.1659C10.5261 20.5008 10.7143 20.955 10.7143 21.4286V32.1429C10.7143 32.6165 10.5261 33.0707 10.1913 33.4055C9.85637 33.7404 9.40217 33.9286 8.92857 33.9286H5.35714C4.40994 33.9286 3.50153 33.5523 2.83176 32.8825C2.16199 32.2127 1.78571 31.3043 1.78571 30.3571V23.2143C1.78571 22.2671 2.16199 21.3587 2.83176 20.6889C3.50153 20.0191 4.40994 19.6429 5.35714 19.6429Z" stroke="white" stroke-width="3.57143" stroke-linecap="round" stroke-linejoin="round"/>
<path d="M44.6429 33.9286H41.0714C40.5978 33.9286 40.1436 33.7404 39.8087 33.4055C39.4739 33.0707 39.2857 32.6165 39.2857 32.1429V21.4286C39.2857 20.955 39.4739 20.5008 39.8087 20.1659C40.1436 19.831 40.5978 19.6429 41.0714 19.6429H44.6429C45.5901 19.6429 46.4985 20.0191 47.1682 20.6889C47.838 21.3587 48.2143 22.2671 48.2143 23.2143V30.3571C48.2143 31.3043 47.838 32.2128 47.1682 32.8825C46.4985 33.5523 45.5901 33.9286 44.6429 33.9286Z" stroke="white" stroke-width="3.57143" stroke-linecap="round" stroke-linejoin="round"/>
<path d="M32.1429 43.75C34.0373 43.75 35.8541 42.9974 37.1936 41.6579C38.5332 40.3184 39.2857 38.5015 39.2857 36.6071V28.5714" stroke="white" stroke-width="3.57143" stroke-linecap="round" stroke-linejoin="round"/>
<path d="M32.1429 43.75C32.1429 44.934 31.6725 46.0695 30.8353 46.9067C29.9981 47.7439 28.8626 48.2143 27.6786 48.2143H22.3214C21.1374 48.2143 20.0019 47.7439 19.1647 46.9067C18.3275 46.0695 17.8571 44.934 17.8571 43.75C17.8571 42.566 18.3275 41.4305 19.1647 40.5933C20.0019 39.7561 21.1374 39.2857 22.3214 39.2857H27.6786C28.8626 39.2857 29.9981 39.7561 30.8353 40.5933C31.6725 41.4305 32.1429 42.566 32.1429 43.75Z" stroke="white" stroke-width="3.57143" stroke-linecap="round" stroke-linejoin="round"/>
</g>
<defs>
<clipPath id="clip0_43_1349">
<rect width="50" height="50" fill="white"/>
</clipPath>
</defs>
</svg>
