<svg width="50" height="50" viewBox="0 0 50 50" fill="none" xmlns="http://www.w3.org/2000/svg">
<g clip-path="url(#clip0_43_1650)">
<path d="M32.1428 26.7857C41.0188 26.7857 48.2143 23.5877 48.2143 19.6429C48.2143 15.698 41.0188 12.5 32.1428 12.5C23.2668 12.5 16.0714 15.698 16.0714 19.6429C16.0714 23.5877 23.2668 26.7857 32.1428 26.7857Z" stroke="white" stroke-width="3.57143" stroke-linecap="round" stroke-linejoin="round"/>
<path d="M16.0714 19.6429V41.0714C16.0714 45 23.2143 48.2143 32.1428 48.2143C41.0714 48.2143 48.2143 45 48.2143 41.0714V19.6429" stroke="white" stroke-width="3.57143" stroke-linecap="round" stroke-linejoin="round"/>
<path d="M48.2143 30.3571C48.2143 34.2857 41.0714 37.5 32.1428 37.5C23.2143 37.5 16.0714 34.2857 16.0714 30.3571" stroke="white" stroke-width="3.57143" stroke-linecap="round" stroke-linejoin="round"/>
<path d="M31.7857 5.35714C27.6125 2.7817 22.7547 1.53613 17.8571 1.78572C8.96428 1.78572 1.78571 5 1.78571 8.92857C1.78571 11.0357 3.85713 12.9286 7.14285 14.2857" stroke="white" stroke-width="3.57143" stroke-linecap="round" stroke-linejoin="round"/>
<path d="M7.14285 35.7143C3.85713 34.3571 1.78571 32.4643 1.78571 30.3571V8.92857" stroke="white" stroke-width="3.57143" stroke-linecap="round" stroke-linejoin="round"/>
<path d="M7.14285 25C3.85713 23.6429 1.78571 21.75 1.78571 19.6429" stroke="white" stroke-width="3.57143" stroke-linecap="round" stroke-linejoin="round"/>
</g>
<defs>
<clipPath id="clip0_43_1650">
<rect width="50" height="50" fill="white"/>
</clipPath>
</defs>
</svg>
