<svg width="50" height="50" viewBox="0 0 50 50" fill="none" xmlns="http://www.w3.org/2000/svg">
<g clip-path="url(#clip0_43_1751)">
<path d="M38 5.5H12C11.4006 5.51646 10.8135 5.67375 10.2861 5.95915C9.75872 6.24455 9.30591 6.65005 8.96429 7.14286L2.46429 16.1429C1.98163 16.8249 1.74059 17.6486 1.77941 18.4833C1.81823 19.3179 2.13469 20.1157 2.67857 20.75L22.1786 43.2143C22.5124 43.6444 22.9402 43.9926 23.4292 44.2321C23.9182 44.4715 24.4555 44.596 25 44.596C25.5445 44.596 26.0818 44.4715 26.5708 44.2321C27.0598 43.9926 27.4876 43.6444 27.8214 43.2143L47.3214 20.75C47.8653 20.1157 48.1818 19.3179 48.2206 18.4833C48.2594 17.6486 48.0184 16.8249 47.5357 16.1429L41.0357 7.14286C40.6941 6.65005 40.2413 6.24455 39.7139 5.95915C39.1865 5.67375 38.5994 5.51646 38 5.5Z" stroke="white" stroke-width="3.57143" stroke-linecap="round" stroke-linejoin="round"/>
<path d="M23.1429 5.46429L14.4286 18.9643L25 44.5" stroke="white" stroke-width="3.57143" stroke-linecap="round" stroke-linejoin="round"/>
<path d="M26.9643 5.46429L35.6429 18.9643L25 44.5" stroke="white" stroke-width="3.57143" stroke-linecap="round" stroke-linejoin="round"/>
<path d="M1.85714 18.9643H48.1429" stroke="white" stroke-width="3.57143" stroke-linecap="round" stroke-linejoin="round"/>
</g>
<defs>
<clipPath id="clip0_43_1751">
<rect width="50" height="50" fill="white"/>
</clipPath>
</defs>
</svg>
