<svg width="50" height="50" viewBox="0 0 50 50" fill="none" xmlns="http://www.w3.org/2000/svg">
<g clip-path="url(#clip0_43_1730)">
<path d="M21.4286 10.7143H14.2857C12.3133 10.7143 10.7143 12.3133 10.7143 14.2857V21.4286C10.7143 23.401 12.3133 25 14.2857 25H21.4286C23.401 25 25 23.401 25 21.4286V14.2857C25 12.3133 23.401 10.7143 21.4286 10.7143Z" stroke="white" stroke-width="3.57143" stroke-linecap="round" stroke-linejoin="round"/>
<path d="M10.7143 1.78571H5.35713C4.40993 1.78571 3.50153 2.16199 2.83175 2.83176C2.16198 3.50153 1.78571 4.40994 1.78571 5.35714V10.7143" stroke="white" stroke-width="3.57143" stroke-linecap="round" stroke-linejoin="round"/>
<path d="M39.2857 1.78571H44.6428C45.5901 1.78571 46.4985 2.16199 47.1682 2.83176C47.838 3.50153 48.2143 4.40994 48.2143 5.35714V10.7143" stroke="white" stroke-width="3.57143" stroke-linecap="round" stroke-linejoin="round"/>
<path d="M10.7143 48.2143H5.35713C4.40993 48.2143 3.50153 47.838 2.83175 47.1682C2.16198 46.4985 1.78571 45.5901 1.78571 44.6429V39.2857" stroke="white" stroke-width="3.57143" stroke-linecap="round" stroke-linejoin="round"/>
<path d="M39.2857 48.2143H44.6428C45.5901 48.2143 46.4985 47.838 47.1682 47.1682C47.838 46.4985 48.2143 45.5901 48.2143 44.6429V39.2857" stroke="white" stroke-width="3.57143" stroke-linecap="round" stroke-linejoin="round"/>
<path d="M10.7143 33.9286V39.2857H16.0714" stroke="white" stroke-width="3.57143" stroke-linecap="round" stroke-linejoin="round"/>
<path d="M25 39.2857V33.9286H19.6428" stroke="white" stroke-width="3.57143" stroke-linecap="round" stroke-linejoin="round"/>
<path d="M39.2857 16.0714H33.9286V10.7143" stroke="white" stroke-width="3.57143" stroke-linecap="round" stroke-linejoin="round"/>
<path d="M39.2857 28.5714V23.2143H33.9286" stroke="white" stroke-width="3.57143" stroke-linecap="round" stroke-linejoin="round"/>
<path d="M33.9286 33.9286V39.2857H39.2857" stroke="white" stroke-width="3.57143" stroke-linecap="round" stroke-linejoin="round"/>
</g>
<defs>
<clipPath id="clip0_43_1730">
<rect width="50" height="50" fill="white"/>
</clipPath>
</defs>
</svg>
