<svg width="50" height="50" viewBox="0 0 50 50" fill="none" xmlns="http://www.w3.org/2000/svg">
<g clip-path="url(#clip0_43_1634)">
<path d="M42.8571 26.7857V19.6429C42.8571 18.6957 42.4809 17.7873 41.8111 17.1175C41.1413 16.4477 40.2329 16.0714 39.2857 16.0714H5.35715C4.40995 16.0714 3.50154 16.4477 2.83177 17.1175C2.162 17.7873 1.78572 18.6957 1.78572 19.6429V44.6429C1.78572 45.5901 2.162 46.4985 2.83177 47.1682C3.50154 47.838 4.40995 48.2143 5.35715 48.2143H39.2857C40.2329 48.2143 41.1413 47.838 41.8111 47.1682C42.4809 46.4985 42.8571 45.5901 42.8571 44.6429V35.7143" stroke="white" stroke-width="3.57143" stroke-linecap="round" stroke-linejoin="round"/>
<path d="M13.7143 7.14286L33.9643 1.85714C34.1918 1.79303 34.43 1.77569 34.6645 1.80616C34.8989 1.83663 35.1247 1.91429 35.3283 2.03445C35.5319 2.1546 35.7091 2.31477 35.8491 2.50527C35.9891 2.69577 36.089 2.91267 36.1429 3.14286L37.1429 7.14286" stroke="white" stroke-width="3.57143" stroke-linecap="round" stroke-linejoin="round"/>
<path d="M46.4286 26.7857H37.5C36.5138 26.7857 35.7143 27.5852 35.7143 28.5714V33.9286C35.7143 34.9148 36.5138 35.7143 37.5 35.7143H46.4286C47.4148 35.7143 48.2143 34.9148 48.2143 33.9286V28.5714C48.2143 27.5852 47.4148 26.7857 46.4286 26.7857Z" stroke="white" stroke-width="3.57143" stroke-linecap="round" stroke-linejoin="round"/>
</g>
<defs>
<clipPath id="clip0_43_1634">
<rect width="50" height="50" fill="white"/>
</clipPath>
</defs>
</svg>
